M48
; DRILL file {KiCad 9.0.3} date 2025-07-22T12:58:56-0500
; FORMAT={-:-/ absolute / metric / decimal}
; #@! TF.CreationDate,2025-07-22T12:58:56-05:00
; #@! TF.GenerationSoftware,Kicad,Pcbnew,9.0.3
; #@! TF.FileFunction,Plated,1,2,PTH
FMAT,2
METRIC
; #@! TA.AperFunction,Plated,PTH,ComponentDrill
T1C0.800
; #@! TA.AperFunction,Plated,PTH,ComponentDrill
T2C0.900
; #@! TA.AperFunction,Plated,PTH,ComponentDrill
T3C1.000
; #@! TA.AperFunction,Plated,PTH,ComponentDrill
T4C1.020
; #@! TA.AperFunction,Plated,PTH,ComponentDrill
T5C1.100
%
G90
G05
T1
X94.38Y-104.0
X102.0Y-104.0
X102.88Y-52.5
X105.62Y-92.26
X110.5Y-52.5
X113.24Y-92.26
T2
X107.694Y-100.894
X110.294Y-100.894
X112.894Y-100.894
X115.96Y-61.0
X118.5Y-61.0
T3
X105.47Y-61.33
X105.47Y-63.87
X110.5Y-61.21
X110.5Y-63.75
X117.5Y-68.46
X117.5Y-71.0
X117.5Y-73.54
X117.5Y-76.08
X117.5Y-78.62
X117.5Y-81.16
X117.5Y-83.7
X117.5Y-86.24
X156.5Y-66.46
X156.5Y-69.0
X156.5Y-71.54
X156.5Y-77.96
X156.5Y-80.5
X156.5Y-83.04
X156.5Y-88.46
X156.5Y-91.0
X156.5Y-93.54
X156.5Y-100.46
X156.5Y-103.0
X156.5Y-105.54
T4
X123.485Y-68.59
X123.485Y-71.13
X123.485Y-73.67
X123.485Y-76.21
X123.485Y-78.75
X123.485Y-81.29
X123.485Y-83.83
X123.485Y-86.37
X123.485Y-88.91
X123.485Y-91.45
X123.485Y-93.99
X123.485Y-96.53
X123.485Y-99.07
X123.485Y-101.61
X123.485Y-104.15
X148.885Y-68.59
X148.885Y-71.13
X148.885Y-73.67
X148.885Y-76.21
X148.885Y-78.75
X148.885Y-81.29
X148.885Y-83.83
X148.885Y-86.37
X148.885Y-88.91
X148.885Y-91.45
X148.885Y-93.99
X148.885Y-96.53
X148.885Y-99.07
X148.885Y-101.61
X148.885Y-104.15
T5
X92.44Y-61.7
X94.98Y-61.7
X97.52Y-61.7
M30
