%TF.GenerationSoftware,KiCad,Pcbnew,9.0.3*%
%TF.CreationDate,2025-07-22T12:58:59-05:00*%
%TF.ProjectId,altlas2.0,616c746c-6173-4322-9e30-2e6b69636164,rev?*%
%TF.SameCoordinates,Original*%
%TF.FileFunction,Copper,L2,Bot*%
%TF.FilePolarity,Positive*%
%FSLAX46Y46*%
G04 Gerber Fmt 4.6, Leading zero omitted, Abs format (unit mm)*
G04 Created by KiCad (PCBNEW 9.0.3) date 2025-07-22 12:58:59*
%MOMM*%
%LPD*%
G01*
G04 APERTURE LIST*
%TA.AperFunction,ComponentPad*%
%ADD10R,1.700000X1.700000*%
%TD*%
%TA.AperFunction,ComponentPad*%
%ADD11C,1.700000*%
%TD*%
%TA.AperFunction,ComponentPad*%
%ADD12R,1.905000X2.000000*%
%TD*%
%TA.AperFunction,ComponentPad*%
%ADD13O,1.905000X2.000000*%
%TD*%
%TA.AperFunction,ComponentPad*%
%ADD14C,1.600000*%
%TD*%
%TA.AperFunction,ComponentPad*%
%ADD15R,1.400000X1.400000*%
%TD*%
%TA.AperFunction,ComponentPad*%
%ADD16C,1.400000*%
%TD*%
%TA.AperFunction,ComponentPad*%
%ADD17R,2.000000X2.000000*%
%TD*%
%TA.AperFunction,ComponentPad*%
%ADD18C,2.000000*%
%TD*%
%TA.AperFunction,ComponentPad*%
%ADD19R,1.800000X1.800000*%
%TD*%
%TA.AperFunction,ComponentPad*%
%ADD20C,1.800000*%
%TD*%
%TA.AperFunction,Conductor*%
%ADD21C,1.100000*%
%TD*%
%TA.AperFunction,Conductor*%
%ADD22C,0.600000*%
%TD*%
G04 APERTURE END LIST*
D10*
%TO.P,BOM,1,Pin_1*%
%TO.N,Net-(J7-Pin_1)*%
X105470000Y-61330000D03*
D11*
%TO.P,BOM,2,Pin_2*%
%TO.N,+9V*%
X105470000Y-63870000D03*
%TD*%
D10*
%TO.P,ESC3,1,Pin_1*%
%TO.N,Net-(J4-Pin_1)*%
X156500000Y-93540000D03*
D11*
%TO.P,ESC3,2,Pin_2*%
%TO.N,unconnected-(J4-Pin_2-Pad2)*%
X156500000Y-91000000D03*
%TO.P,ESC3,3,Pin_3*%
%TO.N,GND*%
X156500000Y-88460000D03*
%TD*%
D12*
%TO.P,MOSF,1,G*%
%TO.N,Net-(Q1-G)*%
X92440000Y-61700000D03*
D13*
%TO.P,MOSF,2,D*%
%TO.N,Net-(J7-Pin_1)*%
X94980000Y-61700000D03*
%TO.P,MOSF,3,S*%
%TO.N,GND*%
X97520000Y-61700000D03*
%TD*%
D10*
%TO.P,ESC2,1,Pin_1*%
%TO.N,Net-(J3-Pin_1)*%
X156500000Y-83040000D03*
D11*
%TO.P,ESC2,2,Pin_2*%
%TO.N,unconnected-(J3-Pin_2-Pad2)*%
X156500000Y-80500000D03*
%TO.P,ESC2,3,Pin_3*%
%TO.N,GND*%
X156500000Y-77960000D03*
%TD*%
D14*
%TO.P,R2,1*%
%TO.N,+5V*%
X102000000Y-104000000D03*
%TO.P,R2,2*%
%TO.N,Net-(Q1-G)*%
X94380000Y-104000000D03*
%TD*%
%TO.P,R1,1*%
%TO.N,GND*%
X102880000Y-52500000D03*
%TO.P,R1,2*%
%TO.N,Net-(D2-K)*%
X110500000Y-52500000D03*
%TD*%
D15*
%TO.P,TRANS,1*%
%TO.N,GND*%
X112894500Y-100894500D03*
D16*
%TO.P,TRANS,2*%
%TO.N,Net-(Q3-Pad2)*%
X110294500Y-100894500D03*
%TO.P,TRANS,3*%
%TO.N,Net-(Q1-G)*%
X107694500Y-100894500D03*
%TD*%
D17*
%TO.P,ESP32,1,3V3*%
%TO.N,Net-(J6-Pin_1)*%
X123485000Y-68590000D03*
D18*
%TO.P,ESP32,2,GND*%
%TO.N,GND*%
X123485000Y-71130000D03*
%TO.P,ESP32,3,D15*%
%TO.N,Net-(D2-A)*%
X123485000Y-73670000D03*
%TO.P,ESP32,4,D2*%
%TO.N,unconnected-(U1-D2-Pad4)*%
X123485000Y-76210000D03*
%TO.P,ESP32,5,D4*%
%TO.N,unconnected-(U1-D4-Pad5)*%
X123485000Y-78750000D03*
%TO.P,ESP32,6,RX2*%
%TO.N,unconnected-(U1-RX2-Pad6)*%
X123485000Y-81290000D03*
%TO.P,ESP32,7,TX2*%
%TO.N,unconnected-(U1-TX2-Pad7)*%
X123485000Y-83830000D03*
%TO.P,ESP32,8,D5*%
%TO.N,unconnected-(U1-D5-Pad8)*%
X123485000Y-86370000D03*
%TO.P,ESP32,9,D18*%
%TO.N,unconnected-(U1-D18-Pad9)*%
X123485000Y-88910000D03*
%TO.P,ESP32,10,D19*%
%TO.N,unconnected-(U1-D19-Pad10)*%
X123485000Y-91450000D03*
%TO.P,ESP32,11,D21*%
%TO.N,Net-(J6-Pin_4)*%
X123485000Y-93990000D03*
%TO.P,ESP32,12,RX0*%
%TO.N,unconnected-(U1-RX0-Pad12)*%
X123485000Y-96530000D03*
%TO.P,ESP32,13,TX0*%
%TO.N,unconnected-(U1-TX0-Pad13)*%
X123485000Y-99070000D03*
%TO.P,ESP32,14,D22*%
%TO.N,Net-(J6-Pin_3)*%
X123485000Y-101610000D03*
%TO.P,ESP32,15,D23*%
%TO.N,Net-(J6-Pin_1)*%
X123485000Y-104150000D03*
%TO.P,ESP32,16,EN*%
%TO.N,unconnected-(U1-EN-Pad16)*%
X148885000Y-104150000D03*
%TO.P,ESP32,17,VP*%
%TO.N,unconnected-(U1-VP-Pad17)*%
X148885000Y-101610000D03*
%TO.P,ESP32,18,VN*%
%TO.N,unconnected-(U1-VN-Pad18)*%
X148885000Y-99070000D03*
%TO.P,ESP32,19,D34*%
%TO.N,unconnected-(U1-D34-Pad19)*%
X148885000Y-96530000D03*
%TO.P,ESP32,20,D35*%
%TO.N,unconnected-(U1-D35-Pad20)*%
X148885000Y-93990000D03*
%TO.P,ESP32,21,D32*%
%TO.N,unconnected-(U1-D32-Pad21)*%
X148885000Y-91450000D03*
%TO.P,ESP32,22,D33*%
%TO.N,unconnected-(U1-D33-Pad22)*%
X148885000Y-88910000D03*
%TO.P,ESP32,23,D25*%
%TO.N,unconnected-(U1-D25-Pad23)*%
X148885000Y-86370000D03*
%TO.P,ESP32,24,D26*%
%TO.N,unconnected-(U1-D26-Pad24)*%
X148885000Y-83830000D03*
%TO.P,ESP32,25,D27*%
%TO.N,Net-(J5-Pin_1)*%
X148885000Y-81290000D03*
%TO.P,ESP32,26,D14*%
%TO.N,Net-(J4-Pin_1)*%
X148885000Y-78750000D03*
%TO.P,ESP32,27,D12*%
%TO.N,Net-(J3-Pin_1)*%
X148885000Y-76210000D03*
%TO.P,ESP32,28,D13*%
%TO.N,Net-(J1-Pin_1)*%
X148885000Y-73670000D03*
%TO.P,ESP32,29,GND*%
%TO.N,GND*%
X148885000Y-71130000D03*
%TO.P,ESP32,30,VIN*%
%TO.N,+5V*%
X148885000Y-68590000D03*
%TD*%
D19*
%TO.P,DIO,1,K*%
%TO.N,Net-(D2-K)*%
X115960000Y-61000000D03*
D20*
%TO.P,DIO,2,A*%
%TO.N,Net-(D2-A)*%
X118500000Y-61000000D03*
%TD*%
D14*
%TO.P,R3,1*%
%TO.N,Net-(J6-Pin_1)*%
X113240000Y-92260000D03*
%TO.P,R3,2*%
%TO.N,Net-(Q3-Pad2)*%
X105620000Y-92260000D03*
%TD*%
D10*
%TO.P,9V,1,Pin_1*%
%TO.N,+9V*%
X110500000Y-63750000D03*
D11*
%TO.P,9V,2,Pin_2*%
%TO.N,GND*%
X110500000Y-61210000D03*
%TD*%
D10*
%TO.P,MPU,1,Pin_1*%
%TO.N,Net-(J6-Pin_1)*%
X117500000Y-68460000D03*
D11*
%TO.P,MPU,2,Pin_2*%
%TO.N,GND*%
X117500000Y-71000000D03*
%TO.P,MPU,3,Pin_3*%
%TO.N,Net-(J6-Pin_3)*%
X117500000Y-73540000D03*
%TO.P,MPU,4,Pin_4*%
%TO.N,Net-(J6-Pin_4)*%
X117500000Y-76080000D03*
%TO.P,MPU,5,Pin_5*%
%TO.N,unconnected-(J6-Pin_5-Pad5)*%
X117500000Y-78620000D03*
%TO.P,MPU,6,Pin_6*%
%TO.N,unconnected-(J6-Pin_6-Pad6)*%
X117500000Y-81160000D03*
%TO.P,MPU,7,Pin_7*%
%TO.N,unconnected-(J6-Pin_7-Pad7)*%
X117500000Y-83700000D03*
%TO.P,MPU,8,Pin_8*%
%TO.N,unconnected-(J6-Pin_8-Pad8)*%
X117500000Y-86240000D03*
%TD*%
D10*
%TO.P,ESC4,1,Pin_1*%
%TO.N,Net-(J5-Pin_1)*%
X156500000Y-105540000D03*
D11*
%TO.P,ESC4,2,Pin_2*%
%TO.N,unconnected-(J5-Pin_2-Pad2)*%
X156500000Y-103000000D03*
%TO.P,ESC4,3,Pin_3*%
%TO.N,GND*%
X156500000Y-100460000D03*
%TD*%
D10*
%TO.P,ESC1,1,Pin_1*%
%TO.N,Net-(J1-Pin_1)*%
X156500000Y-71540000D03*
D11*
%TO.P,ESC1,2,Pin_2*%
%TO.N,+5V*%
X156500000Y-69000000D03*
%TO.P,ESC1,3,Pin_3*%
%TO.N,GND*%
X156500000Y-66460000D03*
%TD*%
D21*
%TO.N,GND*%
X123545000Y-71070000D02*
X127760000Y-71070000D01*
X123485000Y-71130000D02*
X123545000Y-71070000D01*
X117500000Y-71000000D02*
X123355000Y-71000000D01*
X123355000Y-71000000D02*
X123485000Y-71130000D01*
D22*
%TO.N,Net-(J6-Pin_1)*%
X112360000Y-88970000D02*
X113240000Y-89850000D01*
X113240000Y-89850000D02*
X113240000Y-92260000D01*
X112360000Y-73600000D02*
X112360000Y-88970000D01*
X117500000Y-68460000D02*
X112360000Y-73600000D01*
%TO.N,Net-(Q3-Pad2)*%
X106849000Y-92260000D02*
X105620000Y-92260000D01*
X110294500Y-95705500D02*
X106849000Y-92260000D01*
%TO.N,Net-(J6-Pin_1)*%
X116620000Y-92828420D02*
X116051580Y-92260000D01*
X116620000Y-98120000D02*
X116620000Y-92828420D01*
X119112000Y-100612000D02*
X116620000Y-98120000D01*
X116051580Y-92260000D02*
X113240000Y-92260000D01*
X119466289Y-104060527D02*
X119112000Y-103706238D01*
X123485000Y-104150000D02*
X123395527Y-104060527D01*
X123395527Y-104060527D02*
X119466289Y-104060527D01*
X119112000Y-103706238D02*
X119112000Y-100612000D01*
%TO.N,Net-(D2-A)*%
X129100000Y-73670000D02*
X123485000Y-73670000D01*
X129075000Y-73645000D02*
X129100000Y-73670000D01*
X131950000Y-64340000D02*
X131950000Y-70770000D01*
X121840000Y-64340000D02*
X131950000Y-64340000D01*
X118500000Y-61000000D02*
X121840000Y-64340000D01*
X131950000Y-70770000D02*
X129075000Y-73645000D01*
X123485000Y-73670000D02*
X123760000Y-73670000D01*
%TO.N,Net-(J6-Pin_1)*%
X123355000Y-68460000D02*
X123485000Y-68590000D01*
X117500000Y-68460000D02*
X123355000Y-68460000D01*
D21*
%TO.N,+5V*%
X157500000Y-69000000D02*
X156500000Y-69000000D01*
X162710000Y-74210000D02*
X157500000Y-69000000D01*
X156370000Y-112680000D02*
X162710000Y-106340000D01*
X162710000Y-106340000D02*
X162710000Y-74210000D01*
X110680000Y-112680000D02*
X156370000Y-112680000D01*
X102000000Y-104000000D02*
X110680000Y-112680000D01*
%TO.N,+9V*%
X105590000Y-63750000D02*
X105470000Y-63630000D01*
X110500000Y-63750000D02*
X105590000Y-63750000D01*
D22*
%TO.N,Net-(D2-K)*%
X110500000Y-52500000D02*
X110500000Y-55540000D01*
X110500000Y-55540000D02*
X115960000Y-61000000D01*
%TO.N,Net-(J1-Pin_1)*%
X154370000Y-73670000D02*
X156500000Y-71540000D01*
X148885000Y-73670000D02*
X154370000Y-73670000D01*
D21*
%TO.N,+5V*%
X157500000Y-63000000D02*
X158451000Y-63951000D01*
X154475000Y-63000000D02*
X157500000Y-63000000D01*
X148885000Y-68590000D02*
X154475000Y-63000000D01*
X158451000Y-63951000D02*
X158451000Y-68549000D01*
X158451000Y-68549000D02*
X158000000Y-69000000D01*
X158000000Y-69000000D02*
X156500000Y-69000000D01*
X148885000Y-68590000D02*
X149295000Y-69000000D01*
%TO.N,GND*%
X97520000Y-61700000D02*
X97500000Y-61680000D01*
X156719131Y-88460000D02*
X156500000Y-88460000D01*
X148885000Y-71130000D02*
X148453737Y-71130000D01*
D22*
%TO.N,Net-(J3-Pin_1)*%
X156280869Y-83040000D02*
X156500000Y-83040000D01*
X148885000Y-76210000D02*
X149450869Y-76210000D01*
X156210000Y-83330000D02*
X156500000Y-83040000D01*
X149450869Y-76210000D02*
X156280869Y-83040000D01*
%TO.N,Net-(J4-Pin_1)*%
X148885000Y-78750000D02*
X149740526Y-78750000D01*
X153500000Y-90759131D02*
X156280869Y-93540000D01*
X156280869Y-93540000D02*
X156500000Y-93540000D01*
X153500000Y-82509474D02*
X153500000Y-90759131D01*
X149740526Y-78750000D02*
X153500000Y-82509474D01*
%TO.N,Net-(J5-Pin_1)*%
X152000000Y-102490000D02*
X155050000Y-105540000D01*
X148885000Y-81290000D02*
X150299213Y-81290000D01*
X152000000Y-82990787D02*
X152000000Y-102490000D01*
X150299213Y-81290000D02*
X152000000Y-82990787D01*
X155050000Y-105540000D02*
X156500000Y-105540000D01*
%TO.N,Net-(J6-Pin_4)*%
X122070787Y-93990000D02*
X123485000Y-93990000D01*
X121384000Y-93303213D02*
X122070787Y-93990000D01*
X121384000Y-78761919D02*
X121384000Y-93303213D01*
X118702081Y-76080000D02*
X121384000Y-78761919D01*
X117500000Y-76080000D02*
X118702081Y-76080000D01*
%TO.N,Net-(J6-Pin_3)*%
X114220000Y-75617919D02*
X114220000Y-87220000D01*
X114220000Y-87220000D02*
X119983000Y-92983000D01*
X119983000Y-98539263D02*
X123053737Y-101610000D01*
X116297919Y-73540000D02*
X114220000Y-75617919D01*
X123053737Y-101610000D02*
X123485000Y-101610000D01*
X119983000Y-92983000D02*
X119983000Y-98539263D01*
X117500000Y-73540000D02*
X116297919Y-73540000D01*
%TO.N,Net-(J7-Pin_1)*%
X94960000Y-62100000D02*
X97030000Y-64170000D01*
X102640000Y-61330000D02*
X105470000Y-61330000D01*
X99800000Y-64170000D02*
X102640000Y-61330000D01*
X97030000Y-64170000D02*
X99800000Y-64170000D01*
%TO.N,Net-(Q1-G)*%
X102380000Y-96000000D02*
X94380000Y-104000000D01*
X107694500Y-100894500D02*
X92420000Y-85620000D01*
X92420000Y-85620000D02*
X92420000Y-61720000D01*
X102800000Y-96000000D02*
X102380000Y-96000000D01*
X107694500Y-100894500D02*
X102800000Y-96000000D01*
X92420000Y-61720000D02*
X92440000Y-61700000D01*
%TO.N,Net-(J6-Pin_1)*%
X123650000Y-104150000D02*
X124000000Y-104500000D01*
X123485000Y-104150000D02*
X122631314Y-104150000D01*
%TO.N,Net-(Q3-Pad2)*%
X110294500Y-100894500D02*
X110294500Y-95705500D01*
%TD*%
%TA.AperFunction,Conductor*%
%TO.N,GND*%
G36*
X121632337Y-69580185D02*
G01*
X121678092Y-69632989D01*
X121688518Y-69670617D01*
X121699630Y-69769249D01*
X121699631Y-69769254D01*
X121759211Y-69939523D01*
X121830295Y-70052652D01*
X121855184Y-70092262D01*
X121982738Y-70219816D01*
X122048113Y-70260894D01*
X122100785Y-70293990D01*
X122147076Y-70346325D01*
X122157724Y-70415379D01*
X122145298Y-70455278D01*
X122094898Y-70554194D01*
X122021934Y-70778752D01*
X121985000Y-71011947D01*
X121985000Y-71248052D01*
X122021934Y-71481247D01*
X122094897Y-71705802D01*
X122202087Y-71916174D01*
X122262338Y-71999104D01*
X122262340Y-71999105D01*
X122993871Y-71267574D01*
X123009755Y-71326853D01*
X123076898Y-71443147D01*
X123171853Y-71538102D01*
X123288147Y-71605245D01*
X123347425Y-71621128D01*
X123068044Y-71900508D01*
X123012458Y-71932601D01*
X122905012Y-71961392D01*
X122905010Y-71961392D01*
X122686954Y-72051714D01*
X122686943Y-72051719D01*
X122482545Y-72169730D01*
X122295302Y-72313406D01*
X122295295Y-72313412D01*
X122128412Y-72480295D01*
X122128406Y-72480302D01*
X121984730Y-72667545D01*
X121984727Y-72667549D01*
X121984727Y-72667550D01*
X121980455Y-72674949D01*
X121866719Y-72871943D01*
X121866714Y-72871954D01*
X121776394Y-73090006D01*
X121715306Y-73317989D01*
X121684501Y-73551979D01*
X121684500Y-73551995D01*
X121684500Y-73788004D01*
X121684501Y-73788020D01*
X121715306Y-74022010D01*
X121776394Y-74249993D01*
X121866714Y-74468045D01*
X121866719Y-74468056D01*
X121897700Y-74521715D01*
X121984727Y-74672450D01*
X121984729Y-74672453D01*
X121984730Y-74672454D01*
X122130879Y-74862920D01*
X122129720Y-74863808D01*
X122156537Y-74921662D01*
X122146983Y-74990876D01*
X122130385Y-75016701D01*
X122130879Y-75017080D01*
X121984730Y-75207545D01*
X121866719Y-75411943D01*
X121866714Y-75411954D01*
X121776394Y-75630006D01*
X121715306Y-75857989D01*
X121684501Y-76091979D01*
X121684500Y-76091995D01*
X121684500Y-76328004D01*
X121684501Y-76328020D01*
X121715306Y-76562010D01*
X121776394Y-76789993D01*
X121866714Y-77008045D01*
X121866719Y-77008056D01*
X121937677Y-77130957D01*
X121984727Y-77212450D01*
X121984729Y-77212453D01*
X121984730Y-77212454D01*
X122130879Y-77402920D01*
X122129720Y-77403808D01*
X122140523Y-77427114D01*
X122155395Y-77455203D01*
X122155109Y-77458582D01*
X122156537Y-77461662D01*
X122152189Y-77493157D01*
X122149515Y-77524825D01*
X122147317Y-77528451D01*
X122146983Y-77530876D01*
X122132203Y-77555581D01*
X122129126Y-77559582D01*
X122128408Y-77560301D01*
X122045554Y-77668277D01*
X122045220Y-77668713D01*
X122016923Y-77689333D01*
X121988865Y-77709821D01*
X121988803Y-77709824D01*
X121988752Y-77709862D01*
X121953724Y-77711914D01*
X121919119Y-77713976D01*
X121919063Y-77713945D01*
X121919002Y-77713949D01*
X121914833Y-77711602D01*
X121859236Y-77680813D01*
X119419011Y-75240588D01*
X119419009Y-75240586D01*
X119278869Y-75138768D01*
X119124526Y-75060127D01*
X118959782Y-75006598D01*
X118959780Y-75006597D01*
X118959779Y-75006597D01*
X118828352Y-74985781D01*
X118788692Y-74979500D01*
X118788691Y-74979500D01*
X118785022Y-74979500D01*
X118755581Y-74970855D01*
X118725595Y-74964332D01*
X118720579Y-74960577D01*
X118717983Y-74959815D01*
X118697341Y-74943181D01*
X118651841Y-74897681D01*
X118618356Y-74836358D01*
X118623340Y-74766666D01*
X118651841Y-74722319D01*
X118701710Y-74672450D01*
X118758931Y-74615229D01*
X118911634Y-74405051D01*
X119029579Y-74173572D01*
X119109860Y-73926493D01*
X119147065Y-73691588D01*
X119150500Y-73669902D01*
X119150500Y-73410097D01*
X119121471Y-73226819D01*
X119109860Y-73153507D01*
X119029579Y-72906428D01*
X119029577Y-72906425D01*
X119029577Y-72906423D01*
X118944536Y-72739523D01*
X118911634Y-72674949D01*
X118758931Y-72464771D01*
X118575229Y-72281069D01*
X118365051Y-72128366D01*
X118198564Y-72043536D01*
X118167178Y-72020732D01*
X117629409Y-71482962D01*
X117692993Y-71465925D01*
X117807007Y-71400099D01*
X117900099Y-71307007D01*
X117965925Y-71192993D01*
X117982962Y-71129409D01*
X118615270Y-71761717D01*
X118615270Y-71761716D01*
X118654622Y-71707554D01*
X118751095Y-71518217D01*
X118816757Y-71316130D01*
X118816757Y-71316127D01*
X118850000Y-71106246D01*
X118850000Y-70893753D01*
X118816757Y-70683872D01*
X118816757Y-70683869D01*
X118751095Y-70481782D01*
X118654622Y-70292445D01*
X118613036Y-70235207D01*
X118589556Y-70169401D01*
X118605381Y-70101347D01*
X118655487Y-70052652D01*
X118672402Y-70045279D01*
X118699519Y-70035790D01*
X118699518Y-70035790D01*
X118699522Y-70035789D01*
X118852262Y-69939816D01*
X118979816Y-69812262D01*
X119075789Y-69659522D01*
X119081379Y-69643545D01*
X119122100Y-69586770D01*
X119187053Y-69561022D01*
X119198421Y-69560500D01*
X121565298Y-69560500D01*
X121632337Y-69580185D01*
G37*
%TD.AperFunction*%
%TA.AperFunction,Conductor*%
G36*
X117034075Y-71192993D02*
G01*
X117099901Y-71307007D01*
X117192993Y-71400099D01*
X117307007Y-71465925D01*
X117370590Y-71482962D01*
X116832820Y-72020732D01*
X116801435Y-72043535D01*
X116634947Y-72128366D01*
X116424774Y-72281066D01*
X116424768Y-72281071D01*
X116302659Y-72403181D01*
X116241336Y-72436666D01*
X116214978Y-72439500D01*
X116211308Y-72439500D01*
X116125763Y-72453049D01*
X116040217Y-72466598D01*
X115875468Y-72520128D01*
X115721130Y-72598768D01*
X115641175Y-72656859D01*
X115580991Y-72700586D01*
X115580989Y-72700588D01*
X115580988Y-72700588D01*
X113672181Y-74609396D01*
X113610858Y-74642881D01*
X113541166Y-74637897D01*
X113485233Y-74596025D01*
X113460816Y-74530561D01*
X113460500Y-74521715D01*
X113460500Y-74107203D01*
X113480185Y-74040164D01*
X113496814Y-74019527D01*
X116044325Y-71472016D01*
X116105644Y-71438534D01*
X116175336Y-71443518D01*
X116231269Y-71485390D01*
X116246161Y-71514093D01*
X116247045Y-71513727D01*
X116248904Y-71518218D01*
X116345375Y-71707550D01*
X116384728Y-71761716D01*
X117017036Y-71129407D01*
X117034075Y-71192993D01*
G37*
%TD.AperFunction*%
%TA.AperFunction,Conductor*%
G36*
X164172539Y-49020185D02*
G01*
X164218294Y-49072989D01*
X164229500Y-49124500D01*
X164229500Y-73733327D01*
X164209815Y-73800366D01*
X164157011Y-73846121D01*
X164087853Y-73856065D01*
X164024297Y-73827040D01*
X163987569Y-73771645D01*
X163961557Y-73691588D01*
X163865051Y-73502184D01*
X163865049Y-73502181D01*
X163865048Y-73502179D01*
X163740110Y-73330215D01*
X163740106Y-73330211D01*
X163740104Y-73330208D01*
X163589792Y-73179896D01*
X163589791Y-73179895D01*
X163586680Y-73176784D01*
X163586665Y-73176770D01*
X159690230Y-69280335D01*
X159656745Y-69219012D01*
X159661729Y-69149320D01*
X159667427Y-69136358D01*
X159702555Y-69067416D01*
X159702555Y-69067415D01*
X159702557Y-69067412D01*
X159768246Y-68865243D01*
X159801500Y-68655287D01*
X159801500Y-68442714D01*
X159801500Y-63844713D01*
X159768246Y-63634757D01*
X159702557Y-63432588D01*
X159606051Y-63243184D01*
X159606049Y-63243181D01*
X159606048Y-63243179D01*
X159481109Y-63071213D01*
X159330791Y-62920895D01*
X158534444Y-62124549D01*
X158534435Y-62124539D01*
X158468940Y-62059044D01*
X158379792Y-61969896D01*
X158379788Y-61969893D01*
X158379784Y-61969889D01*
X158207820Y-61844951D01*
X158018414Y-61748444D01*
X158018413Y-61748443D01*
X158018412Y-61748443D01*
X157816243Y-61682754D01*
X157816241Y-61682753D01*
X157816240Y-61682753D01*
X157654957Y-61657208D01*
X157606287Y-61649500D01*
X157606286Y-61649500D01*
X154586422Y-61649500D01*
X154586398Y-61649499D01*
X154581287Y-61649499D01*
X154368713Y-61649499D01*
X154320040Y-61657208D01*
X154158760Y-61682753D01*
X153956585Y-61748444D01*
X153767179Y-61844951D01*
X153595213Y-61969890D01*
X153595209Y-61969894D01*
X148806675Y-66758429D01*
X148745352Y-66791914D01*
X148735180Y-66793687D01*
X148532989Y-66820306D01*
X148305006Y-66881394D01*
X148086954Y-66971714D01*
X148086943Y-66971719D01*
X147882545Y-67089730D01*
X147695302Y-67233406D01*
X147695295Y-67233412D01*
X147528412Y-67400295D01*
X147528406Y-67400302D01*
X147384730Y-67587545D01*
X147266719Y-67791943D01*
X147266714Y-67791954D01*
X147176394Y-68010006D01*
X147115306Y-68237989D01*
X147084501Y-68471979D01*
X147084500Y-68471995D01*
X147084500Y-68708004D01*
X147084501Y-68708020D01*
X147105839Y-68870103D01*
X147115307Y-68942014D01*
X147170855Y-69149320D01*
X147176394Y-69169993D01*
X147266714Y-69388045D01*
X147266719Y-69388056D01*
X147337677Y-69510957D01*
X147384727Y-69592450D01*
X147384729Y-69592453D01*
X147384730Y-69592454D01*
X147528406Y-69779697D01*
X147528412Y-69779704D01*
X147695295Y-69946587D01*
X147695301Y-69946592D01*
X147882550Y-70090273D01*
X147994749Y-70155051D01*
X148086943Y-70208280D01*
X148086948Y-70208282D01*
X148086951Y-70208284D01*
X148305007Y-70298606D01*
X148412459Y-70327397D01*
X148468044Y-70359490D01*
X148747425Y-70638871D01*
X148688147Y-70654755D01*
X148571853Y-70721898D01*
X148476898Y-70816853D01*
X148409755Y-70933147D01*
X148393871Y-70992425D01*
X147662340Y-70260894D01*
X147602084Y-70343830D01*
X147494897Y-70554197D01*
X147421934Y-70778752D01*
X147385000Y-71011947D01*
X147385000Y-71248052D01*
X147421934Y-71481247D01*
X147494897Y-71705802D01*
X147602087Y-71916174D01*
X147662338Y-71999104D01*
X147662340Y-71999105D01*
X148393871Y-71267574D01*
X148409755Y-71326853D01*
X148476898Y-71443147D01*
X148571853Y-71538102D01*
X148688147Y-71605245D01*
X148747425Y-71621128D01*
X148468044Y-71900508D01*
X148412458Y-71932601D01*
X148305012Y-71961392D01*
X148305010Y-71961392D01*
X148086954Y-72051714D01*
X148086943Y-72051719D01*
X147882545Y-72169730D01*
X147695302Y-72313406D01*
X147695295Y-72313412D01*
X147528412Y-72480295D01*
X147528406Y-72480302D01*
X147384730Y-72667545D01*
X147384727Y-72667549D01*
X147384727Y-72667550D01*
X147380455Y-72674949D01*
X147266719Y-72871943D01*
X147266714Y-72871954D01*
X147176394Y-73090006D01*
X147115306Y-73317989D01*
X147084501Y-73551979D01*
X147084500Y-73551995D01*
X147084500Y-73788004D01*
X147084501Y-73788020D01*
X147115306Y-74022010D01*
X147176394Y-74249993D01*
X147266714Y-74468045D01*
X147266719Y-74468056D01*
X147297700Y-74521715D01*
X147384727Y-74672450D01*
X147384729Y-74672453D01*
X147384730Y-74672454D01*
X147530879Y-74862920D01*
X147529720Y-74863808D01*
X147556537Y-74921662D01*
X147546983Y-74990876D01*
X147530385Y-75016701D01*
X147530879Y-75017080D01*
X147384730Y-75207545D01*
X147266719Y-75411943D01*
X147266714Y-75411954D01*
X147176394Y-75630006D01*
X147115306Y-75857989D01*
X147084501Y-76091979D01*
X147084500Y-76091995D01*
X147084500Y-76328004D01*
X147084501Y-76328020D01*
X147115306Y-76562010D01*
X147176394Y-76789993D01*
X147266714Y-77008045D01*
X147266719Y-77008056D01*
X147337677Y-77130957D01*
X147384727Y-77212450D01*
X147384729Y-77212453D01*
X147384730Y-77212454D01*
X147530879Y-77402920D01*
X147529720Y-77403808D01*
X147556537Y-77461662D01*
X147546983Y-77530876D01*
X147530385Y-77556701D01*
X147530879Y-77557080D01*
X147384730Y-77747545D01*
X147384727Y-77747549D01*
X147384727Y-77747550D01*
X147380455Y-77754949D01*
X147266719Y-77951943D01*
X147266714Y-77951954D01*
X147176394Y-78170006D01*
X147115306Y-78397989D01*
X147084501Y-78631979D01*
X147084500Y-78631995D01*
X147084500Y-78868004D01*
X147084501Y-78868020D01*
X147115306Y-79102010D01*
X147176394Y-79329993D01*
X147266714Y-79548045D01*
X147266719Y-79548056D01*
X147337677Y-79670957D01*
X147384727Y-79752450D01*
X147384729Y-79752453D01*
X147384730Y-79752454D01*
X147530879Y-79942920D01*
X147529720Y-79943808D01*
X147556537Y-80001662D01*
X147546983Y-80070876D01*
X147530385Y-80096701D01*
X147530879Y-80097080D01*
X147384730Y-80287545D01*
X147384727Y-80287549D01*
X147384727Y-80287550D01*
X147380455Y-80294949D01*
X147266719Y-80491943D01*
X147266714Y-80491954D01*
X147176394Y-80710006D01*
X147115306Y-80937989D01*
X147084501Y-81171979D01*
X147084500Y-81171995D01*
X147084500Y-81408004D01*
X147084501Y-81408020D01*
X147108109Y-81587345D01*
X147115307Y-81642014D01*
X147127559Y-81687738D01*
X147176394Y-81869993D01*
X147266714Y-82088045D01*
X147266719Y-82088056D01*
X147299623Y-82145046D01*
X147384727Y-82292450D01*
X147384729Y-82292453D01*
X147384730Y-82292454D01*
X147530879Y-82482920D01*
X147529720Y-82483808D01*
X147556537Y-82541662D01*
X147546983Y-82610876D01*
X147530385Y-82636701D01*
X147530879Y-82637080D01*
X147384730Y-82827545D01*
X147384727Y-82827549D01*
X147384727Y-82827550D01*
X147380455Y-82834949D01*
X147266719Y-83031943D01*
X147266714Y-83031954D01*
X147176394Y-83250006D01*
X147115306Y-83477989D01*
X147084501Y-83711979D01*
X147084500Y-83711995D01*
X147084500Y-83948004D01*
X147084501Y-83948020D01*
X147115306Y-84182010D01*
X147176394Y-84409993D01*
X147266714Y-84628045D01*
X147266719Y-84628056D01*
X147302772Y-84690500D01*
X147384727Y-84832450D01*
X147384729Y-84832453D01*
X147384730Y-84832454D01*
X147530879Y-85022920D01*
X147529720Y-85023808D01*
X147556537Y-85081662D01*
X147546983Y-85150876D01*
X147530385Y-85176701D01*
X147530879Y-85177080D01*
X147384730Y-85367545D01*
X147384727Y-85367549D01*
X147384727Y-85367550D01*
X147380455Y-85374949D01*
X147266719Y-85571943D01*
X147266714Y-85571954D01*
X147176394Y-85790006D01*
X147115306Y-86017989D01*
X147084501Y-86251979D01*
X147084500Y-86251995D01*
X147084500Y-86488004D01*
X147084501Y-86488020D01*
X147114799Y-86718160D01*
X147115307Y-86722014D01*
X147136331Y-86800477D01*
X147176394Y-86949993D01*
X147266714Y-87168045D01*
X147266719Y-87168056D01*
X147337677Y-87290957D01*
X147384727Y-87372450D01*
X147384729Y-87372453D01*
X147384730Y-87372454D01*
X147530879Y-87562920D01*
X147529720Y-87563808D01*
X147556537Y-87621662D01*
X147546983Y-87690876D01*
X147530385Y-87716701D01*
X147530879Y-87717080D01*
X147384730Y-87907545D01*
X147266719Y-88111943D01*
X147266714Y-88111954D01*
X147176394Y-88330006D01*
X147115306Y-88557989D01*
X147084501Y-88791979D01*
X147084500Y-88791995D01*
X147084500Y-89028004D01*
X147084501Y-89028020D01*
X147115306Y-89262010D01*
X147176394Y-89489993D01*
X147266714Y-89708045D01*
X147266719Y-89708056D01*
X147337677Y-89830957D01*
X147384727Y-89912450D01*
X147384729Y-89912453D01*
X147384730Y-89912454D01*
X147530879Y-90102920D01*
X147529720Y-90103808D01*
X147556537Y-90161662D01*
X147546983Y-90230876D01*
X147530385Y-90256701D01*
X147530879Y-90257080D01*
X147384730Y-90447545D01*
X147266719Y-90651943D01*
X147266714Y-90651954D01*
X147176394Y-90870006D01*
X147115306Y-91097989D01*
X147084501Y-91331979D01*
X147084500Y-91331995D01*
X147084500Y-91568004D01*
X147084501Y-91568020D01*
X147115306Y-91802010D01*
X147176394Y-92029993D01*
X147266714Y-92248045D01*
X147266719Y-92248056D01*
X147320079Y-92340476D01*
X147384727Y-92452450D01*
X147384729Y-92452453D01*
X147384730Y-92452454D01*
X147530879Y-92642920D01*
X147529720Y-92643808D01*
X147556537Y-92701662D01*
X147546983Y-92770876D01*
X147530385Y-92796701D01*
X147530879Y-92797080D01*
X147384730Y-92987545D01*
X147266719Y-93191943D01*
X147266714Y-93191954D01*
X147176394Y-93410006D01*
X147115306Y-93637989D01*
X147084501Y-93871979D01*
X147084500Y-93871995D01*
X147084500Y-94108004D01*
X147084501Y-94108020D01*
X147115306Y-94342010D01*
X147176394Y-94569993D01*
X147266714Y-94788045D01*
X147266719Y-94788056D01*
X147326883Y-94892262D01*
X147384727Y-94992450D01*
X147384729Y-94992453D01*
X147384730Y-94992454D01*
X147530879Y-95182920D01*
X147529720Y-95183808D01*
X147556537Y-95241662D01*
X147546983Y-95310876D01*
X147530385Y-95336701D01*
X147530879Y-95337080D01*
X147384730Y-95527545D01*
X147266719Y-95731943D01*
X147266714Y-95731954D01*
X147176394Y-95950006D01*
X147115306Y-96177989D01*
X147084501Y-96411979D01*
X147084500Y-96411995D01*
X147084500Y-96648004D01*
X147084501Y-96648020D01*
X147115306Y-96882010D01*
X147176394Y-97109993D01*
X147266714Y-97328045D01*
X147266719Y-97328056D01*
X147311445Y-97405522D01*
X147384727Y-97532450D01*
X147384729Y-97532453D01*
X147384730Y-97532454D01*
X147530879Y-97722920D01*
X147529720Y-97723808D01*
X147556537Y-97781662D01*
X147546983Y-97850876D01*
X147530385Y-97876701D01*
X147530879Y-97877080D01*
X147384730Y-98067545D01*
X147266719Y-98271943D01*
X147266714Y-98271954D01*
X147176394Y-98490006D01*
X147115306Y-98717989D01*
X147084501Y-98951979D01*
X147084500Y-98951995D01*
X147084500Y-99188004D01*
X147084501Y-99188020D01*
X147115306Y-99422010D01*
X147176394Y-99649993D01*
X147266714Y-99868045D01*
X147266719Y-99868056D01*
X147315426Y-99952418D01*
X147384727Y-100072450D01*
X147384729Y-100072453D01*
X147384730Y-100072454D01*
X147530879Y-100262920D01*
X147529720Y-100263808D01*
X147556537Y-100321662D01*
X147546983Y-100390876D01*
X147530385Y-100416701D01*
X147530879Y-100417080D01*
X147384730Y-100607545D01*
X147266719Y-100811943D01*
X147266714Y-100811954D01*
X147176394Y-101030006D01*
X147115306Y-101257989D01*
X147084501Y-101491979D01*
X147084500Y-101491995D01*
X147084500Y-101728004D01*
X147084501Y-101728020D01*
X147115306Y-101962010D01*
X147176394Y-102189993D01*
X147266714Y-102408045D01*
X147266719Y-102408056D01*
X147329480Y-102516759D01*
X147384727Y-102612450D01*
X147384729Y-102612453D01*
X147384730Y-102612454D01*
X147530879Y-102802920D01*
X147529720Y-102803808D01*
X147556537Y-102861662D01*
X147546983Y-102930876D01*
X147530385Y-102956701D01*
X147530879Y-102957080D01*
X147384730Y-103147545D01*
X147266719Y-103351943D01*
X147266714Y-103351954D01*
X147176394Y-103570006D01*
X147115306Y-103797989D01*
X147084501Y-104031979D01*
X147084500Y-104031995D01*
X147084500Y-104268004D01*
X147084501Y-104268020D01*
X147104926Y-104423168D01*
X147115307Y-104502014D01*
X147117648Y-104510750D01*
X147176394Y-104729993D01*
X147266714Y-104948045D01*
X147266719Y-104948056D01*
X147297725Y-105001759D01*
X147384727Y-105152450D01*
X147384729Y-105152453D01*
X147384730Y-105152454D01*
X147528406Y-105339697D01*
X147528412Y-105339704D01*
X147695295Y-105506587D01*
X147695302Y-105506593D01*
X147772695Y-105565979D01*
X147882550Y-105650273D01*
X147931053Y-105678276D01*
X147979266Y-105728840D01*
X147992490Y-105797447D01*
X147966522Y-105862312D01*
X147909608Y-105902841D01*
X147901146Y-105905435D01*
X147851119Y-105918840D01*
X147851112Y-105918842D01*
X147639123Y-106006650D01*
X147639109Y-106006657D01*
X147440382Y-106121392D01*
X147258338Y-106261081D01*
X147096081Y-106423338D01*
X146956392Y-106605382D01*
X146841657Y-106804109D01*
X146841650Y-106804123D01*
X146763170Y-106993593D01*
X146753842Y-107016113D01*
X146711170Y-107175369D01*
X146694453Y-107237759D01*
X146694451Y-107237770D01*
X146664500Y-107465258D01*
X146664500Y-107694741D01*
X146685199Y-107851957D01*
X146694452Y-107922238D01*
X146753529Y-108142718D01*
X146753842Y-108143887D01*
X146841650Y-108355876D01*
X146841657Y-108355890D01*
X146956392Y-108554617D01*
X147096081Y-108736661D01*
X147096089Y-108736670D01*
X147258330Y-108898911D01*
X147258338Y-108898918D01*
X147440382Y-109038607D01*
X147440385Y-109038608D01*
X147440388Y-109038611D01*
X147639112Y-109153344D01*
X147639117Y-109153346D01*
X147639123Y-109153349D01*
X147730480Y-109191190D01*
X147851113Y-109241158D01*
X148072762Y-109300548D01*
X148300266Y-109330500D01*
X148300273Y-109330500D01*
X148529727Y-109330500D01*
X148529734Y-109330500D01*
X148757238Y-109300548D01*
X148978887Y-109241158D01*
X149190888Y-109153344D01*
X149389612Y-109038611D01*
X149571661Y-108898919D01*
X149571665Y-108898914D01*
X149571670Y-108898911D01*
X149733911Y-108736670D01*
X149733914Y-108736665D01*
X149733919Y-108736661D01*
X149873611Y-108554612D01*
X149988344Y-108355888D01*
X150076158Y-108143887D01*
X150135548Y-107922238D01*
X150165500Y-107694734D01*
X150165500Y-107465266D01*
X150135548Y-107237762D01*
X150076158Y-107016113D01*
X149988344Y-106804112D01*
X149873611Y-106605388D01*
X149873608Y-106605385D01*
X149873607Y-106605382D01*
X149742833Y-106434956D01*
X149733919Y-106423339D01*
X149733918Y-106423338D01*
X149733911Y-106423330D01*
X149571670Y-106261089D01*
X149571661Y-106261081D01*
X149389620Y-106121394D01*
X149389614Y-106121390D01*
X149389612Y-106121389D01*
X149361882Y-106105379D01*
X149313669Y-106054813D01*
X149300447Y-105986206D01*
X149326415Y-105921341D01*
X149383330Y-105880813D01*
X149391768Y-105878226D01*
X149464993Y-105858606D01*
X149683049Y-105768284D01*
X149887450Y-105650273D01*
X150074699Y-105506592D01*
X150241592Y-105339699D01*
X150385273Y-105152450D01*
X150503284Y-104948049D01*
X150593606Y-104729993D01*
X150654693Y-104502014D01*
X150685500Y-104268011D01*
X150685500Y-104031989D01*
X150654693Y-103797986D01*
X150593606Y-103570007D01*
X150503284Y-103351951D01*
X150503282Y-103351948D01*
X150503280Y-103351943D01*
X150461118Y-103278918D01*
X150385273Y-103147550D01*
X150323302Y-103066788D01*
X150239121Y-102957080D01*
X150240286Y-102956185D01*
X150213469Y-102898381D01*
X150222998Y-102829165D01*
X150239619Y-102803302D01*
X150239121Y-102802920D01*
X150293814Y-102731641D01*
X150385273Y-102612450D01*
X150503284Y-102408049D01*
X150593606Y-102189993D01*
X150654693Y-101962014D01*
X150654693Y-101962008D01*
X150655725Y-101958160D01*
X150692090Y-101898500D01*
X150754937Y-101867971D01*
X150824313Y-101876266D01*
X150878190Y-101920751D01*
X150899465Y-101987303D01*
X150899500Y-101990254D01*
X150899500Y-102403389D01*
X150899500Y-102576611D01*
X150926598Y-102747701D01*
X150980127Y-102912445D01*
X151058768Y-103066788D01*
X151160586Y-103206928D01*
X154333072Y-106379414D01*
X154473212Y-106481232D01*
X154546131Y-106518386D01*
X154627549Y-106559871D01*
X154627551Y-106559871D01*
X154627554Y-106559873D01*
X154792299Y-106613402D01*
X154809747Y-106616165D01*
X154812055Y-106616531D01*
X154875190Y-106646460D01*
X154909698Y-106698049D01*
X154924209Y-106739518D01*
X154924210Y-106739522D01*
X154998916Y-106858414D01*
X155020184Y-106892262D01*
X155147738Y-107019816D01*
X155300478Y-107115789D01*
X155470745Y-107175368D01*
X155470750Y-107175369D01*
X155561246Y-107185565D01*
X155605040Y-107190499D01*
X155605043Y-107190500D01*
X155605046Y-107190500D01*
X157394957Y-107190500D01*
X157394958Y-107190499D01*
X157462104Y-107182934D01*
X157529249Y-107175369D01*
X157529252Y-107175368D01*
X157529255Y-107175368D01*
X157699522Y-107115789D01*
X157852262Y-107019816D01*
X157979816Y-106892262D01*
X158075789Y-106739522D01*
X158135368Y-106569255D01*
X158136426Y-106559871D01*
X158150499Y-106434960D01*
X158150500Y-106434956D01*
X158150500Y-104645043D01*
X158150499Y-104645039D01*
X158135369Y-104510750D01*
X158135368Y-104510745D01*
X158104723Y-104423166D01*
X158075789Y-104340478D01*
X157979816Y-104187738D01*
X157879423Y-104087345D01*
X157845938Y-104026022D01*
X157850922Y-103956330D01*
X157866786Y-103926778D01*
X157911634Y-103865051D01*
X158029579Y-103633572D01*
X158109860Y-103386493D01*
X158132539Y-103243298D01*
X158150500Y-103129902D01*
X158150500Y-102870097D01*
X158112651Y-102631132D01*
X158109860Y-102613507D01*
X158029579Y-102366428D01*
X158029577Y-102366425D01*
X158029577Y-102366423D01*
X157939680Y-102189993D01*
X157911634Y-102134949D01*
X157758931Y-101924771D01*
X157575229Y-101741069D01*
X157447462Y-101648241D01*
X157365054Y-101588368D01*
X157365053Y-101588367D01*
X157365051Y-101588366D01*
X157198564Y-101503536D01*
X157167178Y-101480732D01*
X156629409Y-100942962D01*
X156692993Y-100925925D01*
X156807007Y-100860099D01*
X156900099Y-100767007D01*
X156965925Y-100652993D01*
X156982962Y-100589408D01*
X157615270Y-101221717D01*
X157615270Y-101221716D01*
X157654622Y-101167554D01*
X157751095Y-100978217D01*
X157816757Y-100776130D01*
X157816757Y-100776127D01*
X157850000Y-100566246D01*
X157850000Y-100353753D01*
X157816757Y-100143872D01*
X157816757Y-100143869D01*
X157751095Y-99941782D01*
X157654624Y-99752449D01*
X157615270Y-99698282D01*
X157615269Y-99698282D01*
X156982962Y-100330590D01*
X156965925Y-100267007D01*
X156900099Y-100152993D01*
X156807007Y-100059901D01*
X156692993Y-99994075D01*
X156629409Y-99977037D01*
X157261716Y-99344728D01*
X157207550Y-99305375D01*
X157018217Y-99208904D01*
X156816129Y-99143242D01*
X156606246Y-99110000D01*
X156393754Y-99110000D01*
X156183872Y-99143242D01*
X156183869Y-99143242D01*
X155981782Y-99208904D01*
X155792439Y-99305380D01*
X155738282Y-99344727D01*
X155738282Y-99344728D01*
X156370591Y-99977037D01*
X156307007Y-99994075D01*
X156192993Y-100059901D01*
X156099901Y-100152993D01*
X156034075Y-100267007D01*
X156017037Y-100330591D01*
X155384728Y-99698282D01*
X155384727Y-99698282D01*
X155345380Y-99752439D01*
X155248904Y-99941782D01*
X155183242Y-100143869D01*
X155183242Y-100143872D01*
X155150000Y-100353753D01*
X155150000Y-100566246D01*
X155183242Y-100776127D01*
X155183242Y-100776130D01*
X155248904Y-100978217D01*
X155345375Y-101167550D01*
X155384728Y-101221716D01*
X156017037Y-100589408D01*
X156034075Y-100652993D01*
X156099901Y-100767007D01*
X156192993Y-100860099D01*
X156307007Y-100925925D01*
X156370590Y-100942962D01*
X155832820Y-101480732D01*
X155801435Y-101503535D01*
X155634947Y-101588366D01*
X155424774Y-101741066D01*
X155424768Y-101741071D01*
X155241071Y-101924768D01*
X155241066Y-101924774D01*
X155088368Y-102134945D01*
X154970422Y-102366423D01*
X154890140Y-102613506D01*
X154849500Y-102870097D01*
X154849500Y-103129902D01*
X154890140Y-103386493D01*
X154941011Y-103543057D01*
X154943006Y-103612899D01*
X154906926Y-103672732D01*
X154844225Y-103703560D01*
X154774811Y-103695595D01*
X154735399Y-103669057D01*
X153136819Y-102070477D01*
X153103334Y-102009154D01*
X153100500Y-101982796D01*
X153100500Y-92215335D01*
X153120185Y-92148296D01*
X153172989Y-92102541D01*
X153242147Y-92092597D01*
X153305703Y-92121622D01*
X153312181Y-92127654D01*
X154813181Y-93628654D01*
X154846666Y-93689977D01*
X154849500Y-93716335D01*
X154849500Y-94434960D01*
X154864630Y-94569249D01*
X154864631Y-94569254D01*
X154924211Y-94739523D01*
X155020184Y-94892262D01*
X155147738Y-95019816D01*
X155204936Y-95055756D01*
X155280100Y-95102985D01*
X155300478Y-95115789D01*
X155470745Y-95175368D01*
X155470750Y-95175369D01*
X155561246Y-95185565D01*
X155605040Y-95190499D01*
X155605043Y-95190500D01*
X155605046Y-95190500D01*
X157394957Y-95190500D01*
X157394958Y-95190499D01*
X157462229Y-95182920D01*
X157529249Y-95175369D01*
X157529252Y-95175368D01*
X157529255Y-95175368D01*
X157699522Y-95115789D01*
X157852262Y-95019816D01*
X157979816Y-94892262D01*
X158075789Y-94739522D01*
X158135368Y-94569255D01*
X158136518Y-94559055D01*
X158150499Y-94434960D01*
X158150500Y-94434956D01*
X158150500Y-92645043D01*
X158150499Y-92645039D01*
X158150360Y-92643808D01*
X158145565Y-92601246D01*
X158135369Y-92510750D01*
X158135368Y-92510745D01*
X158098707Y-92405974D01*
X158075789Y-92340478D01*
X157979816Y-92187738D01*
X157879423Y-92087345D01*
X157845938Y-92026022D01*
X157850922Y-91956330D01*
X157866786Y-91926778D01*
X157911634Y-91865051D01*
X158029579Y-91633572D01*
X158109860Y-91386493D01*
X158140588Y-91192483D01*
X158150500Y-91129902D01*
X158150500Y-90870097D01*
X158115949Y-90651954D01*
X158109860Y-90613507D01*
X158029579Y-90366428D01*
X158029577Y-90366425D01*
X158029577Y-90366423D01*
X157973407Y-90256185D01*
X157911634Y-90134949D01*
X157758931Y-89924771D01*
X157575229Y-89741069D01*
X157575225Y-89741066D01*
X157365054Y-89588368D01*
X157365053Y-89588367D01*
X157365051Y-89588366D01*
X157198564Y-89503536D01*
X157167178Y-89480732D01*
X156629409Y-88942962D01*
X156692993Y-88925925D01*
X156807007Y-88860099D01*
X156900099Y-88767007D01*
X156965925Y-88652993D01*
X156982962Y-88589408D01*
X157615270Y-89221717D01*
X157615270Y-89221716D01*
X157654622Y-89167554D01*
X157751095Y-88978217D01*
X157816757Y-88776130D01*
X157816757Y-88776127D01*
X157850000Y-88566246D01*
X157850000Y-88353753D01*
X157816757Y-88143872D01*
X157816757Y-88143869D01*
X157751095Y-87941782D01*
X157654624Y-87752449D01*
X157615270Y-87698282D01*
X157615269Y-87698282D01*
X156982962Y-88330590D01*
X156965925Y-88267007D01*
X156900099Y-88152993D01*
X156807007Y-88059901D01*
X156692993Y-87994075D01*
X156629409Y-87977037D01*
X157261716Y-87344728D01*
X157207550Y-87305375D01*
X157018217Y-87208904D01*
X156816129Y-87143242D01*
X156606246Y-87110000D01*
X156393754Y-87110000D01*
X156183872Y-87143242D01*
X156183869Y-87143242D01*
X155981782Y-87208904D01*
X155792439Y-87305380D01*
X155738282Y-87344727D01*
X155738282Y-87344728D01*
X156370591Y-87977037D01*
X156307007Y-87994075D01*
X156192993Y-88059901D01*
X156099901Y-88152993D01*
X156034075Y-88267007D01*
X156017037Y-88330591D01*
X155384728Y-87698282D01*
X155384727Y-87698282D01*
X155345380Y-87752439D01*
X155248904Y-87941782D01*
X155183242Y-88143869D01*
X155183242Y-88143872D01*
X155150000Y-88353753D01*
X155150000Y-88566246D01*
X155183242Y-88776127D01*
X155183242Y-88776130D01*
X155248904Y-88978217D01*
X155345375Y-89167550D01*
X155384728Y-89221716D01*
X156017037Y-88589408D01*
X156034075Y-88652993D01*
X156099901Y-88767007D01*
X156192993Y-88860099D01*
X156307007Y-88925925D01*
X156370590Y-88942962D01*
X155832820Y-89480732D01*
X155801435Y-89503535D01*
X155634947Y-89588366D01*
X155424774Y-89741066D01*
X155424768Y-89741071D01*
X155241071Y-89924768D01*
X155241066Y-89924774D01*
X155088368Y-90134945D01*
X154970422Y-90366423D01*
X154957716Y-90405531D01*
X154956163Y-90407801D01*
X154955967Y-90410546D01*
X154936559Y-90436470D01*
X154918278Y-90463206D01*
X154915743Y-90464277D01*
X154914095Y-90466479D01*
X154883755Y-90477795D01*
X154853919Y-90490404D01*
X154851208Y-90489934D01*
X154848631Y-90490896D01*
X154816988Y-90484012D01*
X154785073Y-90478489D01*
X154782223Y-90476449D01*
X154780358Y-90476044D01*
X154752104Y-90454893D01*
X154636819Y-90339608D01*
X154603334Y-90278285D01*
X154600500Y-90251927D01*
X154600500Y-83215335D01*
X154606738Y-83194089D01*
X154608318Y-83172001D01*
X154616390Y-83161217D01*
X154620185Y-83148296D01*
X154636918Y-83133796D01*
X154650190Y-83116068D01*
X154662810Y-83111360D01*
X154672989Y-83102541D01*
X154694906Y-83099389D01*
X154715654Y-83091651D01*
X154728814Y-83094513D01*
X154742147Y-83092597D01*
X154762290Y-83101796D01*
X154783927Y-83106503D01*
X154801652Y-83119771D01*
X154805703Y-83121622D01*
X154812181Y-83127654D01*
X154813181Y-83128654D01*
X154846666Y-83189977D01*
X154849500Y-83216335D01*
X154849500Y-83934960D01*
X154864630Y-84069249D01*
X154864631Y-84069254D01*
X154924211Y-84239523D01*
X154983309Y-84333576D01*
X155020184Y-84392262D01*
X155147738Y-84519816D01*
X155300478Y-84615789D01*
X155470745Y-84675368D01*
X155470750Y-84675369D01*
X155561246Y-84685565D01*
X155605040Y-84690499D01*
X155605043Y-84690500D01*
X155605046Y-84690500D01*
X157394957Y-84690500D01*
X157394958Y-84690499D01*
X157462104Y-84682934D01*
X157529249Y-84675369D01*
X157529252Y-84675368D01*
X157529255Y-84675368D01*
X157699522Y-84615789D01*
X157852262Y-84519816D01*
X157979816Y-84392262D01*
X158075789Y-84239522D01*
X158135368Y-84069255D01*
X158150500Y-83934954D01*
X158150500Y-82145046D01*
X158144078Y-82088045D01*
X158135369Y-82010750D01*
X158135368Y-82010745D01*
X158075789Y-81840478D01*
X158046318Y-81793576D01*
X157979815Y-81687737D01*
X157879423Y-81587345D01*
X157845938Y-81526022D01*
X157850922Y-81456330D01*
X157866786Y-81426778D01*
X157911634Y-81365051D01*
X158029579Y-81133572D01*
X158109860Y-80886493D01*
X158137812Y-80710006D01*
X158150500Y-80629902D01*
X158150500Y-80370097D01*
X158128947Y-80234021D01*
X158109860Y-80113507D01*
X158029579Y-79866428D01*
X158029577Y-79866425D01*
X158029577Y-79866423D01*
X157942346Y-79695225D01*
X157911634Y-79634949D01*
X157758931Y-79424771D01*
X157575229Y-79241069D01*
X157543148Y-79217761D01*
X157365054Y-79088368D01*
X157365053Y-79088367D01*
X157365051Y-79088366D01*
X157198564Y-79003536D01*
X157167178Y-78980732D01*
X156629409Y-78442962D01*
X156692993Y-78425925D01*
X156807007Y-78360099D01*
X156900099Y-78267007D01*
X156965925Y-78152993D01*
X156982962Y-78089408D01*
X157615270Y-78721717D01*
X157615270Y-78721716D01*
X157654622Y-78667554D01*
X157751095Y-78478217D01*
X157816757Y-78276130D01*
X157816757Y-78276127D01*
X157850000Y-78066246D01*
X157850000Y-77853753D01*
X157816757Y-77643872D01*
X157816757Y-77643869D01*
X157751095Y-77441782D01*
X157654624Y-77252449D01*
X157615270Y-77198282D01*
X157615269Y-77198282D01*
X156982962Y-77830590D01*
X156965925Y-77767007D01*
X156900099Y-77652993D01*
X156807007Y-77559901D01*
X156692993Y-77494075D01*
X156629409Y-77477037D01*
X157261716Y-76844728D01*
X157207550Y-76805375D01*
X157018217Y-76708904D01*
X156816129Y-76643242D01*
X156606246Y-76610000D01*
X156393754Y-76610000D01*
X156183872Y-76643242D01*
X156183869Y-76643242D01*
X155981782Y-76708904D01*
X155792439Y-76805380D01*
X155738282Y-76844727D01*
X155738282Y-76844728D01*
X156370591Y-77477037D01*
X156307007Y-77494075D01*
X156192993Y-77559901D01*
X156099901Y-77652993D01*
X156034075Y-77767007D01*
X156017037Y-77830591D01*
X155384728Y-77198282D01*
X155384727Y-77198282D01*
X155345380Y-77252439D01*
X155248904Y-77441782D01*
X155183242Y-77643869D01*
X155183242Y-77643872D01*
X155150000Y-77853753D01*
X155150000Y-78066246D01*
X155183242Y-78276127D01*
X155183242Y-78276130D01*
X155248904Y-78478217D01*
X155345375Y-78667550D01*
X155384728Y-78721716D01*
X156017037Y-78089408D01*
X156034075Y-78152993D01*
X156099901Y-78267007D01*
X156192993Y-78360099D01*
X156307007Y-78425925D01*
X156370590Y-78442962D01*
X155832820Y-78980732D01*
X155801435Y-79003535D01*
X155634947Y-79088366D01*
X155424774Y-79241066D01*
X155424768Y-79241071D01*
X155241071Y-79424768D01*
X155241066Y-79424774D01*
X155088368Y-79634945D01*
X154970422Y-79866423D01*
X154966358Y-79878931D01*
X154959166Y-79901069D01*
X154957716Y-79905531D01*
X154918278Y-79963206D01*
X154853919Y-79990404D01*
X154785073Y-79978489D01*
X154752104Y-79954893D01*
X150678002Y-75880791D01*
X150645908Y-75825203D01*
X150643755Y-75817169D01*
X150593606Y-75630007D01*
X150517565Y-75446428D01*
X150503288Y-75411959D01*
X150503280Y-75411943D01*
X150461118Y-75338918D01*
X150385273Y-75207550D01*
X150332495Y-75138768D01*
X150239121Y-75017080D01*
X150240286Y-75016185D01*
X150229451Y-74992830D01*
X150214568Y-74964621D01*
X150214848Y-74961354D01*
X150213469Y-74958381D01*
X150217818Y-74926785D01*
X150220549Y-74895008D01*
X150222675Y-74891505D01*
X150222998Y-74889165D01*
X150237905Y-74864277D01*
X150240907Y-74860383D01*
X150241592Y-74859699D01*
X150272993Y-74818777D01*
X150301147Y-74798322D01*
X150329239Y-74777811D01*
X150329427Y-74777778D01*
X150329521Y-74777710D01*
X150329963Y-74777684D01*
X150371187Y-74770500D01*
X154456610Y-74770500D01*
X154456611Y-74770500D01*
X154627701Y-74743402D01*
X154792445Y-74689873D01*
X154946788Y-74611232D01*
X155086928Y-74509414D01*
X156369523Y-73226819D01*
X156430846Y-73193334D01*
X156457204Y-73190500D01*
X157394957Y-73190500D01*
X157394958Y-73190499D01*
X157462104Y-73182934D01*
X157529249Y-73175369D01*
X157529252Y-73175368D01*
X157529255Y-73175368D01*
X157699522Y-73115789D01*
X157852262Y-73019816D01*
X157979816Y-72892262D01*
X158075789Y-72739522D01*
X158135368Y-72569255D01*
X158137559Y-72549815D01*
X158142934Y-72502104D01*
X158150500Y-72434954D01*
X158150500Y-71859757D01*
X158170185Y-71792718D01*
X158222989Y-71746963D01*
X158292147Y-71737019D01*
X158355703Y-71766044D01*
X158362181Y-71772076D01*
X161323181Y-74733076D01*
X161356666Y-74794399D01*
X161359500Y-74820757D01*
X161359500Y-105729243D01*
X161339815Y-105796282D01*
X161323181Y-105816924D01*
X155846924Y-111293181D01*
X155785601Y-111326666D01*
X155759243Y-111329500D01*
X146207565Y-111329500D01*
X146140526Y-111309815D01*
X146094771Y-111257011D01*
X146083569Y-111206441D01*
X146083563Y-111205701D01*
X146010000Y-101510000D01*
X146009999Y-101509999D01*
X126631312Y-101585142D01*
X126631312Y-101585143D01*
X126615793Y-111157281D01*
X126615714Y-111205701D01*
X126595921Y-111272709D01*
X126543043Y-111318378D01*
X126491714Y-111329500D01*
X111290757Y-111329500D01*
X111223718Y-111309815D01*
X111203076Y-111293181D01*
X103594026Y-103684131D01*
X103563473Y-103629563D01*
X103562596Y-103629849D01*
X103561162Y-103625435D01*
X103561128Y-103625375D01*
X103561091Y-103625224D01*
X103561090Y-103625215D01*
X103483241Y-103385621D01*
X103368870Y-103161155D01*
X103300309Y-103066788D01*
X103220798Y-102957350D01*
X103220794Y-102957345D01*
X103042654Y-102779205D01*
X103042649Y-102779201D01*
X102838848Y-102631132D01*
X102838847Y-102631131D01*
X102838845Y-102631130D01*
X102768747Y-102595413D01*
X102614383Y-102516760D01*
X102374785Y-102438910D01*
X102125962Y-102399500D01*
X101874038Y-102399500D01*
X101749626Y-102419205D01*
X101625214Y-102438910D01*
X101385616Y-102516760D01*
X101161151Y-102631132D01*
X100957350Y-102779201D01*
X100957345Y-102779205D01*
X100779205Y-102957345D01*
X100779201Y-102957350D01*
X100631132Y-103161151D01*
X100516760Y-103385616D01*
X100438910Y-103625214D01*
X100411545Y-103797989D01*
X100399500Y-103874038D01*
X100399500Y-104125962D01*
X100421997Y-104268004D01*
X100438910Y-104374785D01*
X100516760Y-104614383D01*
X100631132Y-104838848D01*
X100779201Y-105042649D01*
X100779205Y-105042654D01*
X100957345Y-105220794D01*
X100957350Y-105220798D01*
X101121002Y-105339697D01*
X101161155Y-105368870D01*
X101385621Y-105483241D01*
X101625215Y-105561090D01*
X101625224Y-105561091D01*
X101625375Y-105561128D01*
X101625435Y-105561162D01*
X101629849Y-105562596D01*
X101629563Y-105563473D01*
X101684131Y-105594026D01*
X109646770Y-113556665D01*
X109646784Y-113556680D01*
X109649895Y-113559791D01*
X109649896Y-113559792D01*
X109800208Y-113710104D01*
X109800211Y-113710106D01*
X109800215Y-113710110D01*
X109972179Y-113835048D01*
X109972181Y-113835049D01*
X109972184Y-113835051D01*
X110161588Y-113931557D01*
X110363757Y-113997246D01*
X110460721Y-114012604D01*
X110463391Y-114013027D01*
X110526526Y-114042956D01*
X110563457Y-114102268D01*
X110562459Y-114172131D01*
X110523849Y-114230363D01*
X110459885Y-114258477D01*
X110443993Y-114259500D01*
X88124500Y-114259500D01*
X88057461Y-114239815D01*
X88011706Y-114187011D01*
X88000500Y-114135500D01*
X88000500Y-109518872D01*
X89499500Y-109518872D01*
X89499500Y-109781127D01*
X89526123Y-109983339D01*
X89533730Y-110041116D01*
X89601602Y-110294418D01*
X89601605Y-110294428D01*
X89701953Y-110536690D01*
X89701958Y-110536700D01*
X89833075Y-110763803D01*
X89992718Y-110971851D01*
X89992726Y-110971860D01*
X90178140Y-111157274D01*
X90178148Y-111157281D01*
X90386196Y-111316924D01*
X90613299Y-111448041D01*
X90613309Y-111448046D01*
X90855571Y-111548394D01*
X90855581Y-111548398D01*
X91108884Y-111616270D01*
X91368880Y-111650500D01*
X91368887Y-111650500D01*
X91631113Y-111650500D01*
X91631120Y-111650500D01*
X91891116Y-111616270D01*
X92144419Y-111548398D01*
X92386697Y-111448043D01*
X92613803Y-111316924D01*
X92821851Y-111157282D01*
X92821855Y-111157277D01*
X92821860Y-111157274D01*
X93007274Y-110971860D01*
X93007277Y-110971855D01*
X93007282Y-110971851D01*
X93166924Y-110763803D01*
X93298043Y-110536697D01*
X93398398Y-110294419D01*
X93466270Y-110041116D01*
X93500500Y-109781120D01*
X93500500Y-109518880D01*
X93466270Y-109258884D01*
X93398398Y-109005581D01*
X93354214Y-108898911D01*
X93298046Y-108763309D01*
X93298041Y-108763299D01*
X93166924Y-108536196D01*
X93044424Y-108376554D01*
X93007282Y-108328149D01*
X93007281Y-108328148D01*
X93007274Y-108328140D01*
X92821860Y-108142726D01*
X92821851Y-108142718D01*
X92613803Y-107983075D01*
X92386700Y-107851958D01*
X92386690Y-107851953D01*
X92144428Y-107751605D01*
X92144421Y-107751603D01*
X92144419Y-107751602D01*
X91891116Y-107683730D01*
X91833339Y-107676123D01*
X91631127Y-107649500D01*
X91631120Y-107649500D01*
X91368880Y-107649500D01*
X91368872Y-107649500D01*
X91137772Y-107679926D01*
X91108884Y-107683730D01*
X90855581Y-107751602D01*
X90855571Y-107751605D01*
X90613309Y-107851953D01*
X90613299Y-107851958D01*
X90386196Y-107983075D01*
X90178148Y-108142718D01*
X89992718Y-108328148D01*
X89833075Y-108536196D01*
X89701958Y-108763299D01*
X89701953Y-108763309D01*
X89601605Y-109005571D01*
X89601602Y-109005581D01*
X89533730Y-109258885D01*
X89499500Y-109518872D01*
X88000500Y-109518872D01*
X88000500Y-60655039D01*
X90687000Y-60655039D01*
X90687000Y-62744960D01*
X90702130Y-62879249D01*
X90702131Y-62879254D01*
X90761711Y-63049523D01*
X90775337Y-63071208D01*
X90857684Y-63202262D01*
X90985238Y-63329816D01*
X91137978Y-63425789D01*
X91236454Y-63460247D01*
X91293230Y-63500969D01*
X91318978Y-63565921D01*
X91319500Y-63577289D01*
X91319500Y-85533389D01*
X91319500Y-85706611D01*
X91346598Y-85877701D01*
X91400127Y-86042445D01*
X91478768Y-86196788D01*
X91580586Y-86336928D01*
X91580588Y-86336930D01*
X100945977Y-95702319D01*
X100979462Y-95763642D01*
X100974478Y-95833334D01*
X100945977Y-95877681D01*
X94460477Y-102363181D01*
X94399154Y-102396666D01*
X94372796Y-102399500D01*
X94254038Y-102399500D01*
X94129626Y-102419205D01*
X94005214Y-102438910D01*
X93765616Y-102516760D01*
X93541151Y-102631132D01*
X93337350Y-102779201D01*
X93337345Y-102779205D01*
X93159205Y-102957345D01*
X93159201Y-102957350D01*
X93011132Y-103161151D01*
X92896760Y-103385616D01*
X92818910Y-103625214D01*
X92791545Y-103797989D01*
X92779500Y-103874038D01*
X92779500Y-104125962D01*
X92801997Y-104268004D01*
X92818910Y-104374785D01*
X92896760Y-104614383D01*
X93011132Y-104838848D01*
X93159201Y-105042649D01*
X93159205Y-105042654D01*
X93337345Y-105220794D01*
X93337350Y-105220798D01*
X93501002Y-105339697D01*
X93541155Y-105368870D01*
X93684184Y-105441747D01*
X93765616Y-105483239D01*
X93765618Y-105483239D01*
X93765621Y-105483241D01*
X94005215Y-105561090D01*
X94254038Y-105600500D01*
X94254039Y-105600500D01*
X94505961Y-105600500D01*
X94505962Y-105600500D01*
X94754785Y-105561090D01*
X94994379Y-105483241D01*
X95218845Y-105368870D01*
X95422656Y-105220793D01*
X95600793Y-105042656D01*
X95748870Y-104838845D01*
X95863241Y-104614379D01*
X95941090Y-104374785D01*
X95980500Y-104125962D01*
X95980500Y-104007204D01*
X96000185Y-103940165D01*
X96016819Y-103919523D01*
X102502319Y-97434023D01*
X102563642Y-97400538D01*
X102633334Y-97405522D01*
X102677681Y-97434023D01*
X106157681Y-100914023D01*
X106191166Y-100975346D01*
X106194000Y-101001704D01*
X106194000Y-101012597D01*
X106230946Y-101245868D01*
X106303933Y-101470496D01*
X106411157Y-101680933D01*
X106549983Y-101872010D01*
X106716990Y-102039017D01*
X106908067Y-102177843D01*
X106931913Y-102189993D01*
X107118503Y-102285066D01*
X107118505Y-102285066D01*
X107118508Y-102285068D01*
X107238912Y-102324189D01*
X107343131Y-102358053D01*
X107576403Y-102395000D01*
X107576408Y-102395000D01*
X107812597Y-102395000D01*
X108045868Y-102358053D01*
X108270492Y-102285068D01*
X108480933Y-102177843D01*
X108672010Y-102039017D01*
X108839017Y-101872010D01*
X108894182Y-101796081D01*
X108949512Y-101753416D01*
X109019125Y-101747437D01*
X109080920Y-101780043D01*
X109094817Y-101796081D01*
X109149983Y-101872010D01*
X109316990Y-102039017D01*
X109508067Y-102177843D01*
X109531913Y-102189993D01*
X109718503Y-102285066D01*
X109718505Y-102285066D01*
X109718508Y-102285068D01*
X109838912Y-102324189D01*
X109943131Y-102358053D01*
X110176403Y-102395000D01*
X110176408Y-102395000D01*
X110412597Y-102395000D01*
X110645868Y-102358053D01*
X110870492Y-102285068D01*
X111080933Y-102177843D01*
X111272010Y-102039017D01*
X111439017Y-101872010D01*
X111518221Y-101762995D01*
X111573550Y-101720330D01*
X111643163Y-101714351D01*
X111704958Y-101746956D01*
X111734720Y-101792547D01*
X111751146Y-101836588D01*
X111751149Y-101836593D01*
X111837309Y-101951687D01*
X111837312Y-101951690D01*
X111952406Y-102037850D01*
X111952413Y-102037854D01*
X112087120Y-102088096D01*
X112087127Y-102088098D01*
X112146655Y-102094499D01*
X112146672Y-102094500D01*
X112644500Y-102094500D01*
X112644500Y-101269777D01*
X112720806Y-101313833D01*
X112835256Y-101344500D01*
X112953744Y-101344500D01*
X113068194Y-101313833D01*
X113144500Y-101269777D01*
X113144500Y-102094500D01*
X113642328Y-102094500D01*
X113642344Y-102094499D01*
X113701872Y-102088098D01*
X113701879Y-102088096D01*
X113836586Y-102037854D01*
X113836593Y-102037850D01*
X113951687Y-101951690D01*
X113951690Y-101951687D01*
X114037850Y-101836593D01*
X114037854Y-101836586D01*
X114088096Y-101701879D01*
X114088098Y-101701872D01*
X114094499Y-101642344D01*
X114094500Y-101642327D01*
X114094500Y-101144500D01*
X113269778Y-101144500D01*
X113313833Y-101068194D01*
X113344500Y-100953744D01*
X113344500Y-100835256D01*
X113313833Y-100720806D01*
X113269778Y-100644500D01*
X114094500Y-100644500D01*
X114094500Y-100146672D01*
X114094499Y-100146655D01*
X114088098Y-100087127D01*
X114088096Y-100087120D01*
X114037854Y-99952413D01*
X114037850Y-99952406D01*
X113951690Y-99837312D01*
X113951687Y-99837309D01*
X113836593Y-99751149D01*
X113836586Y-99751145D01*
X113701879Y-99700903D01*
X113701872Y-99700901D01*
X113642344Y-99694500D01*
X113144500Y-99694500D01*
X113144500Y-100519222D01*
X113068194Y-100475167D01*
X112953744Y-100444500D01*
X112835256Y-100444500D01*
X112720806Y-100475167D01*
X112644500Y-100519222D01*
X112644500Y-99694500D01*
X112146655Y-99694500D01*
X112087127Y-99700901D01*
X112087120Y-99700903D01*
X111952413Y-99751145D01*
X111952406Y-99751149D01*
X111837312Y-99837309D01*
X111837309Y-99837312D01*
X111751149Y-99952406D01*
X111751143Y-99952418D01*
X111734719Y-99996452D01*
X111729492Y-100003433D01*
X111727684Y-100011967D01*
X111708874Y-100030976D01*
X111692848Y-100052386D01*
X111684674Y-100055434D01*
X111678541Y-100061633D01*
X111652443Y-100067455D01*
X111627383Y-100076802D01*
X111618860Y-100074947D01*
X111610348Y-100076847D01*
X111585243Y-100067635D01*
X111559110Y-100061950D01*
X111551221Y-100055150D01*
X111544755Y-100052778D01*
X111522997Y-100030824D01*
X111519667Y-100027954D01*
X111518926Y-100026976D01*
X111439017Y-99916990D01*
X111425281Y-99903254D01*
X111420129Y-99896447D01*
X111410650Y-99871441D01*
X111397834Y-99847969D01*
X111396281Y-99833531D01*
X111395365Y-99831113D01*
X111395800Y-99829057D01*
X111395000Y-99821611D01*
X111395000Y-95618889D01*
X111380533Y-95527550D01*
X111367902Y-95447799D01*
X111314373Y-95283055D01*
X111235732Y-95128712D01*
X111133914Y-94988572D01*
X111011428Y-94866086D01*
X107565928Y-91420586D01*
X107425788Y-91318768D01*
X107271445Y-91240127D01*
X107106701Y-91186598D01*
X107106699Y-91186597D01*
X107106698Y-91186597D01*
X106964629Y-91164096D01*
X106935611Y-91159500D01*
X106935610Y-91159500D01*
X106834311Y-91159500D01*
X106767272Y-91139815D01*
X106746630Y-91123181D01*
X106662654Y-91039205D01*
X106662649Y-91039201D01*
X106458848Y-90891132D01*
X106458847Y-90891131D01*
X106458845Y-90891130D01*
X106388747Y-90855413D01*
X106234383Y-90776760D01*
X105994785Y-90698910D01*
X105745962Y-90659500D01*
X105494038Y-90659500D01*
X105369626Y-90679205D01*
X105245214Y-90698910D01*
X105005616Y-90776760D01*
X104781151Y-90891132D01*
X104577350Y-91039201D01*
X104577345Y-91039205D01*
X104399205Y-91217345D01*
X104399201Y-91217350D01*
X104251132Y-91421151D01*
X104136760Y-91645616D01*
X104058910Y-91885214D01*
X104026064Y-92092597D01*
X104019500Y-92134038D01*
X104019500Y-92385962D01*
X104030031Y-92452450D01*
X104058910Y-92634785D01*
X104136760Y-92874383D01*
X104251132Y-93098848D01*
X104399201Y-93302649D01*
X104399205Y-93302654D01*
X104577345Y-93480794D01*
X104577350Y-93480798D01*
X104717124Y-93582349D01*
X104781155Y-93628870D01*
X104924184Y-93701747D01*
X105005616Y-93743239D01*
X105005618Y-93743239D01*
X105005621Y-93743241D01*
X105245215Y-93821090D01*
X105494038Y-93860500D01*
X105494039Y-93860500D01*
X105745961Y-93860500D01*
X105745962Y-93860500D01*
X105994785Y-93821090D01*
X106234379Y-93743241D01*
X106458845Y-93628870D01*
X106490557Y-93605829D01*
X106556362Y-93582349D01*
X106624416Y-93598174D01*
X106651124Y-93618466D01*
X109157681Y-96125023D01*
X109191166Y-96186346D01*
X109194000Y-96212704D01*
X109194000Y-99821611D01*
X109187562Y-99843535D01*
X109185664Y-99866308D01*
X109176940Y-99879707D01*
X109174315Y-99888650D01*
X109168386Y-99897084D01*
X109163435Y-99903537D01*
X109149983Y-99916990D01*
X109093875Y-99994214D01*
X109092886Y-99995505D01*
X109065913Y-100015206D01*
X109039487Y-100035583D01*
X109037819Y-100035726D01*
X109036464Y-100036716D01*
X109003112Y-100038707D01*
X108969874Y-100041562D01*
X108968392Y-100040780D01*
X108966718Y-100040880D01*
X108937596Y-100024530D01*
X108908079Y-100008956D01*
X108906397Y-100007015D01*
X108905793Y-100006676D01*
X108905302Y-100005751D01*
X108894182Y-99992918D01*
X108839017Y-99916990D01*
X108672010Y-99749983D01*
X108480933Y-99611157D01*
X108270496Y-99503933D01*
X108045868Y-99430946D01*
X107812597Y-99394000D01*
X107812592Y-99394000D01*
X107801704Y-99394000D01*
X107734665Y-99374315D01*
X107714023Y-99357681D01*
X93556819Y-85200477D01*
X93523334Y-85139154D01*
X93520500Y-85112796D01*
X93520500Y-63591286D01*
X93540185Y-63524247D01*
X93592989Y-63478492D01*
X93603546Y-63474244D01*
X93645482Y-63459569D01*
X93742022Y-63425789D01*
X93894762Y-63329816D01*
X93944569Y-63280008D01*
X94005891Y-63246523D01*
X94075582Y-63251507D01*
X94094250Y-63260302D01*
X94202996Y-63323087D01*
X94203001Y-63323089D01*
X94203004Y-63323091D01*
X94415308Y-63411030D01*
X94637273Y-63470505D01*
X94753185Y-63485764D01*
X94817080Y-63514030D01*
X94824680Y-63521022D01*
X96190586Y-64886928D01*
X96313072Y-65009414D01*
X96453212Y-65111232D01*
X96607555Y-65189873D01*
X96772299Y-65243402D01*
X96943389Y-65270500D01*
X96943390Y-65270500D01*
X99886610Y-65270500D01*
X99886611Y-65270500D01*
X100057701Y-65243402D01*
X100222445Y-65189873D01*
X100376788Y-65111232D01*
X100516928Y-65009414D01*
X103059523Y-62466819D01*
X103120846Y-62433334D01*
X103147204Y-62430500D01*
X103771579Y-62430500D01*
X103838618Y-62450185D01*
X103884373Y-62502989D01*
X103888621Y-62513546D01*
X103894211Y-62529523D01*
X103990184Y-62682262D01*
X104090576Y-62782654D01*
X104124061Y-62843977D01*
X104119077Y-62913669D01*
X104103214Y-62943219D01*
X104058367Y-63004946D01*
X103940422Y-63236423D01*
X103860140Y-63483506D01*
X103819500Y-63740097D01*
X103819500Y-63999902D01*
X103860140Y-64256493D01*
X103940422Y-64503576D01*
X104012459Y-64644954D01*
X104058366Y-64735051D01*
X104211069Y-64945229D01*
X104394771Y-65128931D01*
X104604949Y-65281634D01*
X104752445Y-65356787D01*
X104836423Y-65399577D01*
X104836425Y-65399577D01*
X104836428Y-65399579D01*
X105083507Y-65479860D01*
X105215706Y-65500797D01*
X105340098Y-65520500D01*
X105340103Y-65520500D01*
X105599902Y-65520500D01*
X105713298Y-65502539D01*
X105856493Y-65479860D01*
X106103572Y-65399579D01*
X106335051Y-65281634D01*
X106545229Y-65128931D01*
X106545228Y-65128931D01*
X106549171Y-65126067D01*
X106550105Y-65127353D01*
X106607491Y-65101639D01*
X106624263Y-65100500D01*
X108967059Y-65100500D01*
X109034098Y-65120185D01*
X109054740Y-65136818D01*
X109147738Y-65229816D01*
X109300478Y-65325789D01*
X109470745Y-65385368D01*
X109470750Y-65385369D01*
X109561246Y-65395565D01*
X109605040Y-65400499D01*
X109605043Y-65400500D01*
X109605046Y-65400500D01*
X111394957Y-65400500D01*
X111394958Y-65400499D01*
X111462104Y-65392934D01*
X111529249Y-65385369D01*
X111529252Y-65385368D01*
X111529255Y-65385368D01*
X111699522Y-65325789D01*
X111852262Y-65229816D01*
X111979816Y-65102262D01*
X112075789Y-64949522D01*
X112135368Y-64779255D01*
X112150500Y-64644954D01*
X112150500Y-62855046D01*
X112145404Y-62809816D01*
X112135369Y-62720750D01*
X112135368Y-62720745D01*
X112128283Y-62700498D01*
X112075789Y-62550478D01*
X112062621Y-62529522D01*
X112036582Y-62488080D01*
X111979816Y-62397738D01*
X111852262Y-62270184D01*
X111838629Y-62261618D01*
X111699519Y-62174208D01*
X111672399Y-62164719D01*
X111615623Y-62123997D01*
X111589876Y-62059044D01*
X111603333Y-61990483D01*
X111613037Y-61974791D01*
X111654622Y-61917555D01*
X111751095Y-61728217D01*
X111816757Y-61526130D01*
X111816757Y-61526127D01*
X111850000Y-61316246D01*
X111850000Y-61103753D01*
X111816757Y-60893872D01*
X111816757Y-60893869D01*
X111751095Y-60691782D01*
X111654624Y-60502449D01*
X111615270Y-60448282D01*
X111615269Y-60448282D01*
X110982962Y-61080589D01*
X110965925Y-61017007D01*
X110900099Y-60902993D01*
X110807007Y-60809901D01*
X110692993Y-60744075D01*
X110629409Y-60727037D01*
X111261716Y-60094728D01*
X111207550Y-60055375D01*
X111018217Y-59958904D01*
X110816129Y-59893242D01*
X110606246Y-59860000D01*
X110393754Y-59860000D01*
X110183872Y-59893242D01*
X110183869Y-59893242D01*
X109981782Y-59958904D01*
X109792439Y-60055380D01*
X109738282Y-60094727D01*
X109738282Y-60094728D01*
X110370591Y-60727037D01*
X110307007Y-60744075D01*
X110192993Y-60809901D01*
X110099901Y-60902993D01*
X110034075Y-61017007D01*
X110017037Y-61080591D01*
X109384728Y-60448282D01*
X109384727Y-60448282D01*
X109345380Y-60502439D01*
X109248904Y-60691782D01*
X109183242Y-60893869D01*
X109183242Y-60893872D01*
X109150000Y-61103753D01*
X109150000Y-61316246D01*
X109183242Y-61526127D01*
X109183242Y-61526130D01*
X109248904Y-61728217D01*
X109345377Y-61917554D01*
X109386963Y-61974792D01*
X109410443Y-62040599D01*
X109394618Y-62108653D01*
X109344512Y-62157348D01*
X109327601Y-62164719D01*
X109300479Y-62174209D01*
X109147739Y-62270183D01*
X109054740Y-62363182D01*
X108993416Y-62396666D01*
X108967059Y-62399500D01*
X107239590Y-62399500D01*
X107172551Y-62379815D01*
X107126796Y-62327011D01*
X107116370Y-62261618D01*
X107120499Y-62224962D01*
X107120500Y-62224956D01*
X107120500Y-60435043D01*
X107120499Y-60435039D01*
X107105369Y-60300750D01*
X107105368Y-60300745D01*
X107064147Y-60182942D01*
X107064146Y-60182938D01*
X107045790Y-60130480D01*
X107045789Y-60130478D01*
X106949816Y-59977738D01*
X106822262Y-59850184D01*
X106669523Y-59754211D01*
X106499254Y-59694631D01*
X106499249Y-59694630D01*
X106364960Y-59679500D01*
X106364954Y-59679500D01*
X104575046Y-59679500D01*
X104575039Y-59679500D01*
X104440750Y-59694630D01*
X104440745Y-59694631D01*
X104270476Y-59754211D01*
X104117737Y-59850184D01*
X103990184Y-59977737D01*
X103894211Y-60130476D01*
X103888621Y-60146454D01*
X103847900Y-60203230D01*
X103782947Y-60228978D01*
X103771579Y-60229500D01*
X102553388Y-60229500D01*
X102526290Y-60233791D01*
X102526289Y-60233790D01*
X102382305Y-60256596D01*
X102382303Y-60256596D01*
X102382300Y-60256597D01*
X102299927Y-60283362D01*
X102217550Y-60310128D01*
X102063210Y-60388769D01*
X102063201Y-60388775D01*
X101961395Y-60462740D01*
X101961396Y-60462741D01*
X101923073Y-60490584D01*
X101923070Y-60490587D01*
X99380477Y-63033181D01*
X99319154Y-63066666D01*
X99292796Y-63069500D01*
X98551507Y-63069500D01*
X98484468Y-63049815D01*
X98438713Y-62997011D01*
X98428769Y-62927853D01*
X98457794Y-62864297D01*
X98463826Y-62857819D01*
X98627902Y-62693742D01*
X98762288Y-62508776D01*
X98866082Y-62305070D01*
X98936734Y-62087628D01*
X98958532Y-61950000D01*
X98010748Y-61950000D01*
X98032518Y-61912292D01*
X98070000Y-61772409D01*
X98070000Y-61627591D01*
X98032518Y-61487708D01*
X98010748Y-61450000D01*
X98958532Y-61450000D01*
X98936734Y-61312371D01*
X98866082Y-61094929D01*
X98762288Y-60891223D01*
X98627902Y-60706257D01*
X98466242Y-60544597D01*
X98281276Y-60410211D01*
X98077568Y-60306417D01*
X97860124Y-60235765D01*
X97770000Y-60221490D01*
X97770000Y-61209252D01*
X97732292Y-61187482D01*
X97592409Y-61150000D01*
X97447591Y-61150000D01*
X97307708Y-61187482D01*
X97270000Y-61209252D01*
X97270000Y-60221490D01*
X97269999Y-60221490D01*
X97179875Y-60235765D01*
X96962431Y-60306417D01*
X96758720Y-60410213D01*
X96573766Y-60544589D01*
X96541178Y-60577176D01*
X96479854Y-60610659D01*
X96410162Y-60605673D01*
X96355123Y-60564978D01*
X96300804Y-60494188D01*
X96300798Y-60494181D01*
X96138318Y-60331701D01*
X96138311Y-60331695D01*
X95956012Y-60191813D01*
X95956010Y-60191812D01*
X95956004Y-60191807D01*
X95756996Y-60076909D01*
X95756992Y-60076907D01*
X95544701Y-59988973D01*
X95544694Y-59988971D01*
X95544692Y-59988970D01*
X95322727Y-59929495D01*
X95272098Y-59922829D01*
X95094905Y-59899500D01*
X95094898Y-59899500D01*
X94865102Y-59899500D01*
X94865094Y-59899500D01*
X94662587Y-59926162D01*
X94637273Y-59929495D01*
X94457227Y-59977738D01*
X94415308Y-59988970D01*
X94415298Y-59988973D01*
X94203007Y-60076907D01*
X94202996Y-60076912D01*
X94094250Y-60139697D01*
X94026349Y-60156170D01*
X93960323Y-60133317D01*
X93944569Y-60119991D01*
X93894762Y-60070184D01*
X93742023Y-59974211D01*
X93571754Y-59914631D01*
X93571749Y-59914630D01*
X93437460Y-59899500D01*
X93437454Y-59899500D01*
X91442546Y-59899500D01*
X91442539Y-59899500D01*
X91308250Y-59914630D01*
X91308245Y-59914631D01*
X91137976Y-59974211D01*
X90985237Y-60070184D01*
X90857684Y-60197737D01*
X90761711Y-60350476D01*
X90702131Y-60520745D01*
X90702130Y-60520750D01*
X90687000Y-60655039D01*
X88000500Y-60655039D01*
X88000500Y-52398872D01*
X90109500Y-52398872D01*
X90109500Y-52661127D01*
X90128366Y-52804417D01*
X90143730Y-52921116D01*
X90211602Y-53174418D01*
X90211605Y-53174428D01*
X90311953Y-53416690D01*
X90311958Y-53416700D01*
X90443075Y-53643803D01*
X90602718Y-53851851D01*
X90602726Y-53851860D01*
X90788140Y-54037274D01*
X90788148Y-54037281D01*
X90996196Y-54196924D01*
X91223299Y-54328041D01*
X91223309Y-54328046D01*
X91465571Y-54428394D01*
X91465581Y-54428398D01*
X91718884Y-54496270D01*
X91978880Y-54530500D01*
X91978887Y-54530500D01*
X92241113Y-54530500D01*
X92241120Y-54530500D01*
X92501116Y-54496270D01*
X92754419Y-54428398D01*
X92996697Y-54328043D01*
X93223803Y-54196924D01*
X93431851Y-54037282D01*
X93431855Y-54037277D01*
X93431860Y-54037274D01*
X93617274Y-53851860D01*
X93617277Y-53851855D01*
X93617282Y-53851851D01*
X93776924Y-53643803D01*
X93908043Y-53416697D01*
X94008398Y-53174419D01*
X94076270Y-52921116D01*
X94110500Y-52661120D01*
X94110500Y-52398880D01*
X94110342Y-52397682D01*
X101580000Y-52397682D01*
X101580000Y-52602317D01*
X101612009Y-52804417D01*
X101675244Y-52999031D01*
X101768141Y-53181350D01*
X101768147Y-53181359D01*
X101800523Y-53225921D01*
X101800524Y-53225922D01*
X102480000Y-52546446D01*
X102480000Y-52552661D01*
X102507259Y-52654394D01*
X102559920Y-52745606D01*
X102634394Y-52820080D01*
X102725606Y-52872741D01*
X102827339Y-52900000D01*
X102833553Y-52900000D01*
X102154076Y-53579474D01*
X102198650Y-53611859D01*
X102380968Y-53704755D01*
X102575582Y-53767990D01*
X102777683Y-53800000D01*
X102982317Y-53800000D01*
X103184417Y-53767990D01*
X103379031Y-53704755D01*
X103561349Y-53611859D01*
X103605921Y-53579474D01*
X102926447Y-52900000D01*
X102932661Y-52900000D01*
X103034394Y-52872741D01*
X103125606Y-52820080D01*
X103200080Y-52745606D01*
X103252741Y-52654394D01*
X103280000Y-52552661D01*
X103280000Y-52546447D01*
X103959474Y-53225921D01*
X103991859Y-53181349D01*
X104084755Y-52999031D01*
X104147990Y-52804417D01*
X104180000Y-52602317D01*
X104180000Y-52397686D01*
X104178555Y-52388562D01*
X104178555Y-52388559D01*
X104176255Y-52374038D01*
X108899500Y-52374038D01*
X108899500Y-52625962D01*
X108905069Y-52661120D01*
X108938910Y-52874785D01*
X109016760Y-53114383D01*
X109131132Y-53338848D01*
X109279201Y-53542649D01*
X109279205Y-53542654D01*
X109363181Y-53626630D01*
X109396666Y-53687953D01*
X109399500Y-53714311D01*
X109399500Y-55453389D01*
X109399500Y-55626611D01*
X109426598Y-55797701D01*
X109480127Y-55962445D01*
X109558768Y-56116788D01*
X109660586Y-56256928D01*
X109660588Y-56256930D01*
X114223181Y-60819523D01*
X114256666Y-60880846D01*
X114259500Y-60907204D01*
X114259500Y-61944960D01*
X114274630Y-62079249D01*
X114274631Y-62079254D01*
X114334211Y-62249523D01*
X114397690Y-62350548D01*
X114430184Y-62402262D01*
X114557738Y-62529816D01*
X114710478Y-62625789D01*
X114840838Y-62671404D01*
X114880745Y-62685368D01*
X114880750Y-62685369D01*
X114971246Y-62695565D01*
X115015040Y-62700499D01*
X115015043Y-62700500D01*
X115015046Y-62700500D01*
X116904957Y-62700500D01*
X116904958Y-62700499D01*
X116972104Y-62692934D01*
X117039249Y-62685369D01*
X117039252Y-62685368D01*
X117039255Y-62685368D01*
X117209522Y-62625789D01*
X117362262Y-62529816D01*
X117436435Y-62455643D01*
X117497758Y-62422158D01*
X117567450Y-62427142D01*
X117586109Y-62435933D01*
X117746274Y-62528405D01*
X117952219Y-62613710D01*
X118167537Y-62671404D01*
X118388543Y-62700500D01*
X118388550Y-62700500D01*
X118592796Y-62700500D01*
X118659835Y-62720185D01*
X118680477Y-62736819D01*
X121123072Y-65179414D01*
X121263212Y-65281232D01*
X121336131Y-65318386D01*
X121417549Y-65359871D01*
X121417551Y-65359871D01*
X121417554Y-65359873D01*
X121582299Y-65413402D01*
X121753389Y-65440500D01*
X121926610Y-65440500D01*
X130725500Y-65440500D01*
X130792539Y-65460185D01*
X130838294Y-65512989D01*
X130849500Y-65564500D01*
X130849500Y-70262796D01*
X130829815Y-70329835D01*
X130813181Y-70350477D01*
X128630477Y-72533181D01*
X128569154Y-72566666D01*
X128542796Y-72569500D01*
X124971187Y-72569500D01*
X124904148Y-72549815D01*
X124872811Y-72520986D01*
X124841593Y-72480302D01*
X124841587Y-72480295D01*
X124674704Y-72313412D01*
X124674697Y-72313406D01*
X124487454Y-72169730D01*
X124487453Y-72169729D01*
X124487450Y-72169727D01*
X124405957Y-72122677D01*
X124283056Y-72051719D01*
X124283045Y-72051714D01*
X124064993Y-71961394D01*
X123957541Y-71932602D01*
X123901954Y-71900508D01*
X123622574Y-71621128D01*
X123681853Y-71605245D01*
X123798147Y-71538102D01*
X123893102Y-71443147D01*
X123960245Y-71326853D01*
X123976128Y-71267575D01*
X124707658Y-71999105D01*
X124707658Y-71999104D01*
X124767914Y-71916169D01*
X124767918Y-71916163D01*
X124875102Y-71705802D01*
X124948065Y-71481247D01*
X124985000Y-71248052D01*
X124985000Y-71011947D01*
X124948065Y-70778752D01*
X124875102Y-70554197D01*
X124824701Y-70455279D01*
X124811805Y-70386610D01*
X124838081Y-70321869D01*
X124869211Y-70293991D01*
X124987262Y-70219816D01*
X125114816Y-70092262D01*
X125210789Y-69939522D01*
X125270368Y-69769255D01*
X125285500Y-69634954D01*
X125285500Y-67545046D01*
X125272622Y-67430750D01*
X125270369Y-67410750D01*
X125270368Y-67410745D01*
X125248937Y-67349500D01*
X125210789Y-67240478D01*
X125206345Y-67233406D01*
X125127382Y-67107737D01*
X125114816Y-67087738D01*
X124987262Y-66960184D01*
X124986969Y-66960000D01*
X124834523Y-66864211D01*
X124664254Y-66804631D01*
X124664249Y-66804630D01*
X124529960Y-66789500D01*
X124529954Y-66789500D01*
X122440046Y-66789500D01*
X122440039Y-66789500D01*
X122305750Y-66804630D01*
X122305745Y-66804631D01*
X122135476Y-66864211D01*
X121982737Y-66960184D01*
X121855184Y-67087737D01*
X121759212Y-67240475D01*
X121759210Y-67240478D01*
X121746622Y-67276455D01*
X121705901Y-67333231D01*
X121640948Y-67358978D01*
X121629581Y-67359500D01*
X119198421Y-67359500D01*
X119131382Y-67339815D01*
X119085627Y-67287011D01*
X119081380Y-67276457D01*
X119075789Y-67260478D01*
X118979816Y-67107738D01*
X118852262Y-66980184D01*
X118820432Y-66960184D01*
X118699523Y-66884211D01*
X118529254Y-66824631D01*
X118529249Y-66824630D01*
X118394960Y-66809500D01*
X118394954Y-66809500D01*
X116605046Y-66809500D01*
X116605039Y-66809500D01*
X116470750Y-66824630D01*
X116470745Y-66824631D01*
X116300476Y-66884211D01*
X116147737Y-66980184D01*
X116020184Y-67107737D01*
X115924211Y-67260476D01*
X115864631Y-67430745D01*
X115864630Y-67430750D01*
X115849500Y-67565039D01*
X115849500Y-68502796D01*
X115829815Y-68569835D01*
X115813181Y-68590477D01*
X111520588Y-72883069D01*
X111520588Y-72883070D01*
X111520586Y-72883072D01*
X111503617Y-72906428D01*
X111418768Y-73023211D01*
X111340128Y-73177552D01*
X111286597Y-73342302D01*
X111259500Y-73513389D01*
X111259500Y-89056610D01*
X111277071Y-89167554D01*
X111286598Y-89227701D01*
X111340127Y-89392445D01*
X111418768Y-89546788D01*
X111520586Y-89686928D01*
X111520588Y-89686930D01*
X112103181Y-90269523D01*
X112136666Y-90330846D01*
X112139500Y-90357204D01*
X112139500Y-91045689D01*
X112119815Y-91112728D01*
X112103181Y-91133370D01*
X112019205Y-91217345D01*
X112019201Y-91217350D01*
X111871132Y-91421151D01*
X111756760Y-91645616D01*
X111678910Y-91885214D01*
X111646064Y-92092597D01*
X111639500Y-92134038D01*
X111639500Y-92385962D01*
X111650031Y-92452450D01*
X111678910Y-92634785D01*
X111756760Y-92874383D01*
X111871132Y-93098848D01*
X112019201Y-93302649D01*
X112019205Y-93302654D01*
X112197345Y-93480794D01*
X112197350Y-93480798D01*
X112337124Y-93582349D01*
X112401155Y-93628870D01*
X112544184Y-93701747D01*
X112625616Y-93743239D01*
X112625618Y-93743239D01*
X112625621Y-93743241D01*
X112865215Y-93821090D01*
X113114038Y-93860500D01*
X113114039Y-93860500D01*
X113365961Y-93860500D01*
X113365962Y-93860500D01*
X113614785Y-93821090D01*
X113854379Y-93743241D01*
X114078845Y-93628870D01*
X114282656Y-93480793D01*
X114366630Y-93396819D01*
X114427953Y-93363334D01*
X114454311Y-93360500D01*
X115395500Y-93360500D01*
X115462539Y-93380185D01*
X115508294Y-93432989D01*
X115519500Y-93484500D01*
X115519500Y-98033389D01*
X115519500Y-98206611D01*
X115546598Y-98377701D01*
X115600127Y-98542445D01*
X115678768Y-98696788D01*
X115780586Y-98836928D01*
X115780588Y-98836930D01*
X117975181Y-101031523D01*
X118008666Y-101092846D01*
X118011500Y-101119204D01*
X118011500Y-103792848D01*
X118037315Y-103955842D01*
X118038598Y-103963939D01*
X118092127Y-104128683D01*
X118170768Y-104283026D01*
X118272586Y-104423166D01*
X118749361Y-104899941D01*
X118889501Y-105001759D01*
X118962420Y-105038913D01*
X119043838Y-105080398D01*
X119043840Y-105080398D01*
X119043843Y-105080400D01*
X119142781Y-105112547D01*
X119175684Y-105123238D01*
X119208587Y-105133929D01*
X119294133Y-105147478D01*
X119379678Y-105161027D01*
X121930158Y-105161027D01*
X121997197Y-105180712D01*
X122028534Y-105209541D01*
X122128406Y-105339697D01*
X122128412Y-105339704D01*
X122295295Y-105506587D01*
X122295301Y-105506592D01*
X122482550Y-105650273D01*
X122613918Y-105726118D01*
X122686943Y-105768280D01*
X122686948Y-105768282D01*
X122686951Y-105768284D01*
X122905007Y-105858606D01*
X122944056Y-105869069D01*
X123003717Y-105905434D01*
X123034246Y-105968281D01*
X123025951Y-106037657D01*
X122981466Y-106091534D01*
X122973975Y-106096224D01*
X122958115Y-106105381D01*
X122930379Y-106121394D01*
X122748338Y-106261081D01*
X122586081Y-106423338D01*
X122446392Y-106605382D01*
X122331657Y-106804109D01*
X122331650Y-106804123D01*
X122253170Y-106993593D01*
X122243842Y-107016113D01*
X122201170Y-107175369D01*
X122184453Y-107237759D01*
X122184451Y-107237770D01*
X122154500Y-107465258D01*
X122154500Y-107694741D01*
X122175199Y-107851957D01*
X122184452Y-107922238D01*
X122243529Y-108142718D01*
X122243842Y-108143887D01*
X122331650Y-108355876D01*
X122331657Y-108355890D01*
X122446392Y-108554617D01*
X122586081Y-108736661D01*
X122586089Y-108736670D01*
X122748330Y-108898911D01*
X122748338Y-108898918D01*
X122930382Y-109038607D01*
X122930385Y-109038608D01*
X122930388Y-109038611D01*
X123129112Y-109153344D01*
X123129117Y-109153346D01*
X123129123Y-109153349D01*
X123220480Y-109191190D01*
X123341113Y-109241158D01*
X123562762Y-109300548D01*
X123790266Y-109330500D01*
X123790273Y-109330500D01*
X124019727Y-109330500D01*
X124019734Y-109330500D01*
X124247238Y-109300548D01*
X124468887Y-109241158D01*
X124680888Y-109153344D01*
X124879612Y-109038611D01*
X125061661Y-108898919D01*
X125061665Y-108898914D01*
X125061670Y-108898911D01*
X125223911Y-108736670D01*
X125223914Y-108736665D01*
X125223919Y-108736661D01*
X125363611Y-108554612D01*
X125478344Y-108355888D01*
X125566158Y-108143887D01*
X125625548Y-107922238D01*
X125655500Y-107694734D01*
X125655500Y-107465266D01*
X125625548Y-107237762D01*
X125566158Y-107016113D01*
X125478344Y-106804112D01*
X125363611Y-106605388D01*
X125363608Y-106605385D01*
X125363607Y-106605382D01*
X125232833Y-106434956D01*
X125223919Y-106423339D01*
X125223918Y-106423338D01*
X125223911Y-106423330D01*
X125061670Y-106261089D01*
X125061661Y-106261081D01*
X124879617Y-106121392D01*
X124680890Y-106006657D01*
X124680876Y-106006650D01*
X124468889Y-105918843D01*
X124468890Y-105918843D01*
X124468887Y-105918842D01*
X124453003Y-105914586D01*
X124393345Y-105878222D01*
X124362816Y-105815375D01*
X124371111Y-105745999D01*
X124415596Y-105692121D01*
X124423089Y-105687431D01*
X124487450Y-105650273D01*
X124674699Y-105506592D01*
X124841592Y-105339699D01*
X124985273Y-105152450D01*
X125103284Y-104948049D01*
X125193606Y-104729993D01*
X125254693Y-104502014D01*
X125285500Y-104268011D01*
X125285500Y-104031989D01*
X125254693Y-103797986D01*
X125193606Y-103570007D01*
X125103284Y-103351951D01*
X125103282Y-103351948D01*
X125103280Y-103351943D01*
X125061118Y-103278918D01*
X124985273Y-103147550D01*
X124923302Y-103066788D01*
X124839121Y-102957080D01*
X124840286Y-102956185D01*
X124813469Y-102898381D01*
X124822998Y-102829165D01*
X124839619Y-102803302D01*
X124839121Y-102802920D01*
X124893814Y-102731641D01*
X124985273Y-102612450D01*
X125103284Y-102408049D01*
X125193606Y-102189993D01*
X125254693Y-101962014D01*
X125285500Y-101728011D01*
X125285500Y-101491989D01*
X125254693Y-101257986D01*
X125193606Y-101030007D01*
X125103284Y-100811951D01*
X125103282Y-100811948D01*
X125103280Y-100811943D01*
X125050661Y-100720806D01*
X124985273Y-100607550D01*
X124929151Y-100534410D01*
X124839121Y-100417080D01*
X124840286Y-100416185D01*
X124813469Y-100358381D01*
X124822998Y-100289165D01*
X124839619Y-100263302D01*
X124839121Y-100262920D01*
X124923470Y-100152993D01*
X124985273Y-100072450D01*
X125103284Y-99868049D01*
X125193606Y-99649993D01*
X125254693Y-99422014D01*
X125285500Y-99188011D01*
X125285500Y-98951989D01*
X125254693Y-98717986D01*
X125193606Y-98490007D01*
X125103284Y-98271951D01*
X125103282Y-98271948D01*
X125103280Y-98271943D01*
X125061118Y-98198918D01*
X124985273Y-98067550D01*
X124952105Y-98024325D01*
X124839121Y-97877080D01*
X124840286Y-97876185D01*
X124813469Y-97818381D01*
X124822998Y-97749165D01*
X124839619Y-97723302D01*
X124839121Y-97722920D01*
X124923621Y-97612796D01*
X124985273Y-97532450D01*
X125103284Y-97328049D01*
X125193606Y-97109993D01*
X125254693Y-96882014D01*
X125285500Y-96648011D01*
X125285500Y-96411989D01*
X125254693Y-96177986D01*
X125193606Y-95950007D01*
X125103284Y-95731951D01*
X125103282Y-95731948D01*
X125103280Y-95731943D01*
X125061118Y-95658918D01*
X124985273Y-95527550D01*
X124924078Y-95447799D01*
X124839121Y-95337080D01*
X124840286Y-95336185D01*
X124813469Y-95278381D01*
X124822998Y-95209165D01*
X124839619Y-95183302D01*
X124839121Y-95182920D01*
X124910037Y-95090500D01*
X124985273Y-94992450D01*
X125103284Y-94788049D01*
X125193606Y-94569993D01*
X125254693Y-94342014D01*
X125285500Y-94108011D01*
X125285500Y-93871989D01*
X125254693Y-93637986D01*
X125193606Y-93410007D01*
X125103284Y-93191951D01*
X125103282Y-93191948D01*
X125103280Y-93191943D01*
X125049529Y-93098845D01*
X124985273Y-92987550D01*
X124898434Y-92874379D01*
X124839121Y-92797080D01*
X124840286Y-92796185D01*
X124813469Y-92738381D01*
X124822998Y-92669165D01*
X124839619Y-92643302D01*
X124839121Y-92642920D01*
X124897934Y-92566272D01*
X124985273Y-92452450D01*
X125103284Y-92248049D01*
X125193606Y-92029993D01*
X125254693Y-91802014D01*
X125285500Y-91568011D01*
X125285500Y-91331989D01*
X125254693Y-91097986D01*
X125193606Y-90870007D01*
X125103284Y-90651951D01*
X125103282Y-90651948D01*
X125103280Y-90651943D01*
X125061118Y-90578918D01*
X124985273Y-90447550D01*
X124915948Y-90357204D01*
X124839121Y-90257080D01*
X124840286Y-90256185D01*
X124813469Y-90198381D01*
X124822998Y-90129165D01*
X124839619Y-90103302D01*
X124839121Y-90102920D01*
X124975816Y-89924774D01*
X124985273Y-89912450D01*
X125103284Y-89708049D01*
X125193606Y-89489993D01*
X125254693Y-89262014D01*
X125285500Y-89028011D01*
X125285500Y-88791989D01*
X125254693Y-88557986D01*
X125193606Y-88330007D01*
X125103284Y-88111951D01*
X125103282Y-88111948D01*
X125103280Y-88111943D01*
X125035228Y-87994075D01*
X124985273Y-87907550D01*
X124941005Y-87849859D01*
X124839121Y-87717080D01*
X124840286Y-87716185D01*
X124813469Y-87658381D01*
X124822998Y-87589165D01*
X124839619Y-87563302D01*
X124839121Y-87562920D01*
X124893814Y-87491641D01*
X124985273Y-87372450D01*
X125103284Y-87168049D01*
X125193606Y-86949993D01*
X125254693Y-86722014D01*
X125285500Y-86488011D01*
X125285500Y-86251989D01*
X125254693Y-86017986D01*
X125193606Y-85790007D01*
X125103284Y-85571951D01*
X125103282Y-85571948D01*
X125103280Y-85571943D01*
X125061118Y-85498918D01*
X124985273Y-85367550D01*
X124857074Y-85200477D01*
X124839121Y-85177080D01*
X124840286Y-85176185D01*
X124813469Y-85118381D01*
X124822998Y-85049165D01*
X124839619Y-85023302D01*
X124839121Y-85022920D01*
X124893814Y-84951641D01*
X124985273Y-84832450D01*
X125103284Y-84628049D01*
X125193606Y-84409993D01*
X125254693Y-84182014D01*
X125285500Y-83948011D01*
X125285500Y-83711989D01*
X125254693Y-83477986D01*
X125193606Y-83250007D01*
X125103284Y-83031951D01*
X125103282Y-83031948D01*
X125103280Y-83031943D01*
X125036324Y-82915973D01*
X124985273Y-82827550D01*
X124952105Y-82784325D01*
X124839121Y-82637080D01*
X124840286Y-82636185D01*
X124813469Y-82578381D01*
X124822998Y-82509165D01*
X124839619Y-82483302D01*
X124839121Y-82482920D01*
X124893814Y-82411641D01*
X124985273Y-82292450D01*
X125103284Y-82088049D01*
X125193606Y-81869993D01*
X125254693Y-81642014D01*
X125285500Y-81408011D01*
X125285500Y-81171989D01*
X125254693Y-80937986D01*
X125193606Y-80710007D01*
X125103284Y-80491951D01*
X125103282Y-80491948D01*
X125103280Y-80491943D01*
X125032935Y-80370103D01*
X124985273Y-80287550D01*
X124952105Y-80244325D01*
X124839121Y-80097080D01*
X124840286Y-80096185D01*
X124813469Y-80038381D01*
X124822998Y-79969165D01*
X124839619Y-79943302D01*
X124839121Y-79942920D01*
X124897819Y-79866423D01*
X124985273Y-79752450D01*
X125103284Y-79548049D01*
X125193606Y-79329993D01*
X125254693Y-79102014D01*
X125285500Y-78868011D01*
X125285500Y-78631989D01*
X125254693Y-78397986D01*
X125193606Y-78170007D01*
X125103284Y-77951951D01*
X125103282Y-77951948D01*
X125103280Y-77951943D01*
X125046589Y-77853753D01*
X124985273Y-77747550D01*
X124905716Y-77643869D01*
X124839121Y-77557080D01*
X124840286Y-77556185D01*
X124813469Y-77498381D01*
X124822998Y-77429165D01*
X124839619Y-77403302D01*
X124839121Y-77402920D01*
X124893814Y-77331641D01*
X124985273Y-77212450D01*
X125103284Y-77008049D01*
X125193606Y-76789993D01*
X125254693Y-76562014D01*
X125285500Y-76328011D01*
X125285500Y-76091989D01*
X125254693Y-75857986D01*
X125193606Y-75630007D01*
X125103284Y-75411951D01*
X125103282Y-75411948D01*
X125103280Y-75411943D01*
X125061118Y-75338918D01*
X124985273Y-75207550D01*
X124932495Y-75138768D01*
X124839121Y-75017080D01*
X124840286Y-75016185D01*
X124829451Y-74992830D01*
X124814568Y-74964621D01*
X124814848Y-74961354D01*
X124813469Y-74958381D01*
X124817818Y-74926785D01*
X124820549Y-74895008D01*
X124822675Y-74891505D01*
X124822998Y-74889165D01*
X124837905Y-74864277D01*
X124840907Y-74860383D01*
X124841592Y-74859699D01*
X124872993Y-74818777D01*
X124901147Y-74798322D01*
X124929239Y-74777811D01*
X124929427Y-74777778D01*
X124929521Y-74777710D01*
X124929963Y-74777684D01*
X124971187Y-74770500D01*
X129186610Y-74770500D01*
X129186611Y-74770500D01*
X129357701Y-74743402D01*
X129522445Y-74689873D01*
X129676788Y-74611232D01*
X129816928Y-74509414D01*
X129939414Y-74386928D01*
X130041232Y-74246788D01*
X130044446Y-74240478D01*
X130067249Y-74209091D01*
X132789414Y-71486928D01*
X132891232Y-71346788D01*
X132969873Y-71192445D01*
X133023402Y-71027701D01*
X133050500Y-70856611D01*
X133050500Y-70683389D01*
X133050500Y-64253389D01*
X133023402Y-64082299D01*
X132969873Y-63917555D01*
X132891232Y-63763212D01*
X132789414Y-63623072D01*
X132666928Y-63500586D01*
X132526788Y-63398768D01*
X132372445Y-63320127D01*
X132207701Y-63266598D01*
X132207699Y-63266597D01*
X132207698Y-63266597D01*
X132076271Y-63245781D01*
X132036611Y-63239500D01*
X132036610Y-63239500D01*
X122347204Y-63239500D01*
X122280165Y-63219815D01*
X122259523Y-63203181D01*
X120236819Y-61180477D01*
X120203334Y-61119154D01*
X120200500Y-61092796D01*
X120200500Y-60888549D01*
X120200500Y-60888543D01*
X120171404Y-60667537D01*
X120130601Y-60515258D01*
X122154500Y-60515258D01*
X122154500Y-60744741D01*
X122175890Y-60907204D01*
X122184452Y-60972238D01*
X122184453Y-60972240D01*
X122243842Y-61193887D01*
X122331650Y-61405876D01*
X122331657Y-61405890D01*
X122446392Y-61604617D01*
X122586081Y-61786661D01*
X122586089Y-61786670D01*
X122748330Y-61948911D01*
X122748338Y-61948918D01*
X122748339Y-61948919D01*
X122775669Y-61969890D01*
X122930382Y-62088607D01*
X122930385Y-62088608D01*
X122930388Y-62088611D01*
X123129112Y-62203344D01*
X123129117Y-62203346D01*
X123129123Y-62203349D01*
X123181302Y-62224962D01*
X123341113Y-62291158D01*
X123562762Y-62350548D01*
X123790266Y-62380500D01*
X123790273Y-62380500D01*
X124019727Y-62380500D01*
X124019734Y-62380500D01*
X124247238Y-62350548D01*
X124468887Y-62291158D01*
X124680888Y-62203344D01*
X124879612Y-62088611D01*
X125061661Y-61948919D01*
X125061665Y-61948914D01*
X125061670Y-61948911D01*
X125223911Y-61786670D01*
X125223914Y-61786665D01*
X125223919Y-61786661D01*
X125363611Y-61604612D01*
X125478344Y-61405888D01*
X125566158Y-61193887D01*
X125625548Y-60972238D01*
X125655500Y-60744734D01*
X125655500Y-60515266D01*
X125655499Y-60515258D01*
X146664500Y-60515258D01*
X146664500Y-60744741D01*
X146685890Y-60907204D01*
X146694452Y-60972238D01*
X146694453Y-60972240D01*
X146753842Y-61193887D01*
X146841650Y-61405876D01*
X146841657Y-61405890D01*
X146956392Y-61604617D01*
X147096081Y-61786661D01*
X147096089Y-61786670D01*
X147258330Y-61948911D01*
X147258338Y-61948918D01*
X147258339Y-61948919D01*
X147285669Y-61969890D01*
X147440382Y-62088607D01*
X147440385Y-62088608D01*
X147440388Y-62088611D01*
X147639112Y-62203344D01*
X147639117Y-62203346D01*
X147639123Y-62203349D01*
X147691302Y-62224962D01*
X147851113Y-62291158D01*
X148072762Y-62350548D01*
X148300266Y-62380500D01*
X148300273Y-62380500D01*
X148529727Y-62380500D01*
X148529734Y-62380500D01*
X148757238Y-62350548D01*
X148978887Y-62291158D01*
X149190888Y-62203344D01*
X149389612Y-62088611D01*
X149571661Y-61948919D01*
X149571665Y-61948914D01*
X149571670Y-61948911D01*
X149733911Y-61786670D01*
X149733914Y-61786665D01*
X149733919Y-61786661D01*
X149873611Y-61604612D01*
X149988344Y-61405888D01*
X150076158Y-61193887D01*
X150135548Y-60972238D01*
X150165500Y-60744734D01*
X150165500Y-60515266D01*
X150135548Y-60287762D01*
X150076158Y-60066113D01*
X150013412Y-59914631D01*
X149988349Y-59854123D01*
X149988346Y-59854117D01*
X149988344Y-59854112D01*
X149873611Y-59655388D01*
X149873608Y-59655385D01*
X149873607Y-59655382D01*
X149733918Y-59473338D01*
X149733911Y-59473330D01*
X149571670Y-59311089D01*
X149571661Y-59311081D01*
X149389617Y-59171392D01*
X149190890Y-59056657D01*
X149190876Y-59056650D01*
X148978887Y-58968842D01*
X148757238Y-58909452D01*
X148719215Y-58904446D01*
X148529741Y-58879500D01*
X148529734Y-58879500D01*
X148300266Y-58879500D01*
X148300258Y-58879500D01*
X148083715Y-58908009D01*
X148072762Y-58909452D01*
X147979076Y-58934554D01*
X147851112Y-58968842D01*
X147639123Y-59056650D01*
X147639109Y-59056657D01*
X147440382Y-59171392D01*
X147258338Y-59311081D01*
X147096081Y-59473338D01*
X146956392Y-59655382D01*
X146841657Y-59854109D01*
X146841650Y-59854123D01*
X146753842Y-60066112D01*
X146694453Y-60287759D01*
X146694451Y-60287770D01*
X146664500Y-60515258D01*
X125655499Y-60515258D01*
X125625548Y-60287762D01*
X125566158Y-60066113D01*
X125503412Y-59914631D01*
X125478349Y-59854123D01*
X125478346Y-59854117D01*
X125478344Y-59854112D01*
X125363611Y-59655388D01*
X125363608Y-59655385D01*
X125363607Y-59655382D01*
X125223918Y-59473338D01*
X125223911Y-59473330D01*
X125061670Y-59311089D01*
X125061661Y-59311081D01*
X124879617Y-59171392D01*
X124680890Y-59056657D01*
X124680876Y-59056650D01*
X124468887Y-58968842D01*
X124247238Y-58909452D01*
X124209215Y-58904446D01*
X124019741Y-58879500D01*
X124019734Y-58879500D01*
X123790266Y-58879500D01*
X123790258Y-58879500D01*
X123573715Y-58908009D01*
X123562762Y-58909452D01*
X123469076Y-58934554D01*
X123341112Y-58968842D01*
X123129123Y-59056650D01*
X123129109Y-59056657D01*
X122930382Y-59171392D01*
X122748338Y-59311081D01*
X122586081Y-59473338D01*
X122446392Y-59655382D01*
X122331657Y-59854109D01*
X122331650Y-59854123D01*
X122243842Y-60066112D01*
X122184453Y-60287759D01*
X122184451Y-60287770D01*
X122154500Y-60515258D01*
X120130601Y-60515258D01*
X120113710Y-60452219D01*
X120106595Y-60435043D01*
X120050970Y-60300750D01*
X120028405Y-60246274D01*
X119916948Y-60053226D01*
X119844573Y-59958904D01*
X119781248Y-59876377D01*
X119781242Y-59876370D01*
X119623629Y-59718757D01*
X119623622Y-59718751D01*
X119446782Y-59583058D01*
X119446780Y-59583057D01*
X119446774Y-59583052D01*
X119253726Y-59471595D01*
X119253722Y-59471593D01*
X119047790Y-59386293D01*
X119047783Y-59386291D01*
X119047781Y-59386290D01*
X118832463Y-59328596D01*
X118832457Y-59328595D01*
X118832452Y-59328594D01*
X118611466Y-59299501D01*
X118611463Y-59299500D01*
X118611457Y-59299500D01*
X118388543Y-59299500D01*
X118388537Y-59299500D01*
X118388533Y-59299501D01*
X118167547Y-59328594D01*
X118167540Y-59328595D01*
X118167537Y-59328596D01*
X117997299Y-59374211D01*
X117952219Y-59386290D01*
X117952209Y-59386293D01*
X117746277Y-59471593D01*
X117746266Y-59471598D01*
X117586115Y-59564062D01*
X117518215Y-59580535D01*
X117452188Y-59557682D01*
X117436434Y-59544356D01*
X117362262Y-59470184D01*
X117209523Y-59374211D01*
X117039254Y-59314631D01*
X117039249Y-59314630D01*
X116904960Y-59299500D01*
X116904954Y-59299500D01*
X115867204Y-59299500D01*
X115800165Y-59279815D01*
X115779523Y-59263181D01*
X111636819Y-55120477D01*
X111603334Y-55059154D01*
X111600500Y-55032796D01*
X111600500Y-53714311D01*
X111620185Y-53647272D01*
X111636819Y-53626630D01*
X111669031Y-53594418D01*
X111720793Y-53542656D01*
X111868870Y-53338845D01*
X111983241Y-53114379D01*
X112061090Y-52874785D01*
X112064453Y-52853553D01*
X112069946Y-52818872D01*
X156499500Y-52818872D01*
X156499500Y-53081127D01*
X156512697Y-53181359D01*
X156533730Y-53341116D01*
X156597598Y-53579474D01*
X156601602Y-53594418D01*
X156601605Y-53594428D01*
X156701953Y-53836690D01*
X156701958Y-53836700D01*
X156833075Y-54063803D01*
X156992718Y-54271851D01*
X156992726Y-54271860D01*
X157178140Y-54457274D01*
X157178148Y-54457281D01*
X157386196Y-54616924D01*
X157613299Y-54748041D01*
X157613309Y-54748046D01*
X157855571Y-54848394D01*
X157855581Y-54848398D01*
X158108884Y-54916270D01*
X158368880Y-54950500D01*
X158368887Y-54950500D01*
X158631113Y-54950500D01*
X158631120Y-54950500D01*
X158891116Y-54916270D01*
X159144419Y-54848398D01*
X159386697Y-54748043D01*
X159613803Y-54616924D01*
X159821851Y-54457282D01*
X159821855Y-54457277D01*
X159821860Y-54457274D01*
X160007274Y-54271860D01*
X160007277Y-54271855D01*
X160007282Y-54271851D01*
X160166924Y-54063803D01*
X160298043Y-53836697D01*
X160398398Y-53594419D01*
X160466270Y-53341116D01*
X160500500Y-53081120D01*
X160500500Y-52818880D01*
X160466270Y-52558884D01*
X160398398Y-52305581D01*
X160352835Y-52195582D01*
X160298046Y-52063309D01*
X160298041Y-52063299D01*
X160166924Y-51836196D01*
X160032609Y-51661155D01*
X160007282Y-51628149D01*
X160007281Y-51628148D01*
X160007274Y-51628140D01*
X159821860Y-51442726D01*
X159821851Y-51442718D01*
X159613803Y-51283075D01*
X159386700Y-51151958D01*
X159386690Y-51151953D01*
X159144428Y-51051605D01*
X159144421Y-51051603D01*
X159144419Y-51051602D01*
X158891116Y-50983730D01*
X158833339Y-50976123D01*
X158631127Y-50949500D01*
X158631120Y-50949500D01*
X158368880Y-50949500D01*
X158368872Y-50949500D01*
X158137772Y-50979926D01*
X158108884Y-50983730D01*
X157855581Y-51051602D01*
X157855571Y-51051605D01*
X157613309Y-51151953D01*
X157613299Y-51151958D01*
X157386196Y-51283075D01*
X157178148Y-51442718D01*
X156992718Y-51628148D01*
X156833075Y-51836196D01*
X156701958Y-52063299D01*
X156701953Y-52063309D01*
X156601605Y-52305571D01*
X156601602Y-52305581D01*
X156535398Y-52552661D01*
X156533730Y-52558885D01*
X156499500Y-52818872D01*
X112069946Y-52818872D01*
X112073660Y-52795423D01*
X112100500Y-52625961D01*
X112100500Y-52374038D01*
X112069754Y-52179920D01*
X112061090Y-52125215D01*
X111983241Y-51885621D01*
X111983239Y-51885618D01*
X111983239Y-51885616D01*
X111941747Y-51804184D01*
X111868870Y-51661155D01*
X111773423Y-51529783D01*
X111720798Y-51457350D01*
X111720794Y-51457345D01*
X111542654Y-51279205D01*
X111542649Y-51279201D01*
X111338848Y-51131132D01*
X111338847Y-51131131D01*
X111338845Y-51131130D01*
X111268747Y-51095413D01*
X111114383Y-51016760D01*
X110874785Y-50938910D01*
X110625962Y-50899500D01*
X110374038Y-50899500D01*
X110249626Y-50919205D01*
X110125214Y-50938910D01*
X109885616Y-51016760D01*
X109661151Y-51131132D01*
X109457350Y-51279201D01*
X109457345Y-51279205D01*
X109279205Y-51457345D01*
X109279201Y-51457350D01*
X109131132Y-51661151D01*
X109016760Y-51885616D01*
X108938910Y-52125214D01*
X108927765Y-52195582D01*
X108899500Y-52374038D01*
X104176255Y-52374038D01*
X104147990Y-52195582D01*
X104084755Y-52000968D01*
X103991859Y-51818650D01*
X103959474Y-51774077D01*
X103959474Y-51774076D01*
X103280000Y-52453551D01*
X103280000Y-52447339D01*
X103252741Y-52345606D01*
X103200080Y-52254394D01*
X103125606Y-52179920D01*
X103034394Y-52127259D01*
X102932661Y-52100000D01*
X102926446Y-52100000D01*
X103605922Y-51420524D01*
X103605921Y-51420523D01*
X103561359Y-51388147D01*
X103561350Y-51388141D01*
X103379031Y-51295244D01*
X103184417Y-51232009D01*
X102982317Y-51200000D01*
X102777683Y-51200000D01*
X102575582Y-51232009D01*
X102380968Y-51295244D01*
X102198644Y-51388143D01*
X102154077Y-51420523D01*
X102154077Y-51420524D01*
X102833554Y-52100000D01*
X102827339Y-52100000D01*
X102725606Y-52127259D01*
X102634394Y-52179920D01*
X102559920Y-52254394D01*
X102507259Y-52345606D01*
X102480000Y-52447339D01*
X102480000Y-52453553D01*
X101800524Y-51774077D01*
X101800523Y-51774077D01*
X101768143Y-51818644D01*
X101675244Y-52000968D01*
X101612009Y-52195582D01*
X101580000Y-52397682D01*
X94110342Y-52397682D01*
X94076270Y-52138884D01*
X94008398Y-51885581D01*
X94008394Y-51885571D01*
X93908046Y-51643309D01*
X93908037Y-51643292D01*
X93842504Y-51529784D01*
X93842503Y-51529783D01*
X93776924Y-51416196D01*
X93654424Y-51256554D01*
X93617282Y-51208149D01*
X93617281Y-51208148D01*
X93617274Y-51208140D01*
X93431860Y-51022726D01*
X93431851Y-51022718D01*
X93223803Y-50863075D01*
X92996700Y-50731958D01*
X92996690Y-50731953D01*
X92754428Y-50631605D01*
X92754421Y-50631603D01*
X92754419Y-50631602D01*
X92501116Y-50563730D01*
X92443339Y-50556123D01*
X92241127Y-50529500D01*
X92241120Y-50529500D01*
X91978880Y-50529500D01*
X91978872Y-50529500D01*
X91747772Y-50559926D01*
X91718884Y-50563730D01*
X91465581Y-50631602D01*
X91465571Y-50631605D01*
X91223309Y-50731953D01*
X91223299Y-50731958D01*
X90996196Y-50863075D01*
X90788148Y-51022718D01*
X90602718Y-51208148D01*
X90443075Y-51416196D01*
X90311958Y-51643299D01*
X90311953Y-51643309D01*
X90211605Y-51885571D01*
X90211602Y-51885581D01*
X90143730Y-52138884D01*
X90139926Y-52167772D01*
X90109500Y-52398872D01*
X88000500Y-52398872D01*
X88000500Y-49124500D01*
X88020185Y-49057461D01*
X88072989Y-49011706D01*
X88124500Y-49000500D01*
X164105500Y-49000500D01*
X164172539Y-49020185D01*
G37*
%TD.AperFunction*%
%TA.AperFunction,Conductor*%
G36*
X156918683Y-64359144D02*
G01*
X156948670Y-64365668D01*
X156953685Y-64369422D01*
X156956282Y-64370185D01*
X156976924Y-64386819D01*
X157064181Y-64474076D01*
X157097666Y-64535399D01*
X157100500Y-64561757D01*
X157100500Y-65064968D01*
X157080815Y-65132007D01*
X157028011Y-65177762D01*
X156958853Y-65187706D01*
X156938183Y-65182899D01*
X156816134Y-65143243D01*
X156816127Y-65143242D01*
X156606246Y-65110000D01*
X156393754Y-65110000D01*
X156183872Y-65143242D01*
X156183869Y-65143242D01*
X155981782Y-65208904D01*
X155792439Y-65305380D01*
X155738282Y-65344727D01*
X155738282Y-65344728D01*
X156370591Y-65977037D01*
X156307007Y-65994075D01*
X156192993Y-66059901D01*
X156099901Y-66152993D01*
X156034075Y-66267007D01*
X156017037Y-66330591D01*
X155384728Y-65698282D01*
X155384727Y-65698282D01*
X155345380Y-65752439D01*
X155248904Y-65941782D01*
X155183242Y-66143869D01*
X155183242Y-66143872D01*
X155150000Y-66353753D01*
X155150000Y-66566246D01*
X155183242Y-66776127D01*
X155183242Y-66776130D01*
X155248904Y-66978217D01*
X155345375Y-67167550D01*
X155384728Y-67221716D01*
X156017037Y-66589408D01*
X156034075Y-66652993D01*
X156099901Y-66767007D01*
X156192993Y-66860099D01*
X156307007Y-66925925D01*
X156370589Y-66942962D01*
X155832820Y-67480732D01*
X155801435Y-67503535D01*
X155634947Y-67588366D01*
X155424774Y-67741066D01*
X155424768Y-67741071D01*
X155241071Y-67924768D01*
X155241066Y-67924774D01*
X155088368Y-68134945D01*
X154970422Y-68366423D01*
X154890140Y-68613506D01*
X154849500Y-68870097D01*
X154849500Y-69129902D01*
X154890140Y-69386493D01*
X154970422Y-69633576D01*
X155088368Y-69865054D01*
X155133213Y-69926779D01*
X155156693Y-69992585D01*
X155140867Y-70060639D01*
X155120577Y-70087345D01*
X155020183Y-70187739D01*
X154924211Y-70340476D01*
X154864631Y-70510745D01*
X154864630Y-70510750D01*
X154849500Y-70645039D01*
X154849500Y-71582796D01*
X154829815Y-71649835D01*
X154813181Y-71670477D01*
X153950477Y-72533181D01*
X153889154Y-72566666D01*
X153862796Y-72569500D01*
X150371187Y-72569500D01*
X150304148Y-72549815D01*
X150272811Y-72520986D01*
X150241593Y-72480302D01*
X150241587Y-72480295D01*
X150074704Y-72313412D01*
X150074697Y-72313406D01*
X149887454Y-72169730D01*
X149887453Y-72169729D01*
X149887450Y-72169727D01*
X149805957Y-72122677D01*
X149683056Y-72051719D01*
X149683045Y-72051714D01*
X149464993Y-71961394D01*
X149357541Y-71932602D01*
X149301954Y-71900508D01*
X149022574Y-71621128D01*
X149081853Y-71605245D01*
X149198147Y-71538102D01*
X149293102Y-71443147D01*
X149360245Y-71326853D01*
X149376128Y-71267574D01*
X150107658Y-71999105D01*
X150107658Y-71999104D01*
X150167914Y-71916169D01*
X150167918Y-71916163D01*
X150275102Y-71705802D01*
X150348065Y-71481247D01*
X150385000Y-71248052D01*
X150385000Y-71011947D01*
X150348065Y-70778752D01*
X150275102Y-70554197D01*
X150167914Y-70343828D01*
X150093990Y-70242081D01*
X150070510Y-70176275D01*
X150086335Y-70108221D01*
X150121419Y-70068881D01*
X150174792Y-70030104D01*
X150325104Y-69879792D01*
X150325106Y-69879788D01*
X150325109Y-69879786D01*
X150450048Y-69707820D01*
X150450047Y-69707820D01*
X150450051Y-69707816D01*
X150546557Y-69518412D01*
X150612246Y-69316243D01*
X150645501Y-69106287D01*
X150645501Y-68992643D01*
X150646817Y-68974627D01*
X150647863Y-68967502D01*
X150654693Y-68942014D01*
X150681434Y-68738888D01*
X150681567Y-68737989D01*
X150695792Y-68707085D01*
X150709578Y-68675923D01*
X150710697Y-68674705D01*
X150710783Y-68674521D01*
X150710989Y-68674389D01*
X150716558Y-68668336D01*
X154998076Y-64386819D01*
X155059399Y-64353334D01*
X155085757Y-64350500D01*
X156889243Y-64350500D01*
X156918683Y-64359144D01*
G37*
%TD.AperFunction*%
%TD*%
M02*
