%TF.GenerationSoftware,KiCad,Pcbnew,9.0.3*%
%TF.CreationDate,2025-07-22T12:58:59-05:00*%
%TF.ProjectId,altlas2.0,616c746c-6173-4322-9e30-2e6b69636164,rev?*%
%TF.SameCoordinates,Original*%
%TF.FileFunction,Soldermask,Bot*%
%TF.FilePolarity,Negative*%
%FSLAX46Y46*%
G04 Gerber Fmt 4.6, Leading zero omitted, Abs format (unit mm)*
G04 Created by KiCad (PCBNEW 9.0.3) date 2025-07-22 12:58:59*
%MOMM*%
%LPD*%
G01*
G04 APERTURE LIST*
G04 Aperture macros list*
%AMRoundRect*
0 Rectangle with rounded corners*
0 $1 Rounding radius*
0 $2 $3 $4 $5 $6 $7 $8 $9 X,Y pos of 4 corners*
0 Add a 4 corners polygon primitive as box body*
4,1,4,$2,$3,$4,$5,$6,$7,$8,$9,$2,$3,0*
0 Add four circle primitives for the rounded corners*
1,1,$1+$1,$2,$3*
1,1,$1+$1,$4,$5*
1,1,$1+$1,$6,$7*
1,1,$1+$1,$8,$9*
0 Add four rect primitives between the rounded corners*
20,1,$1+$1,$2,$3,$4,$5,0*
20,1,$1+$1,$4,$5,$6,$7,0*
20,1,$1+$1,$6,$7,$8,$9,0*
20,1,$1+$1,$8,$9,$2,$3,0*%
G04 Aperture macros list end*
%ADD10R,1.700000X1.700000*%
%ADD11C,1.700000*%
%ADD12C,3.500000*%
%ADD13R,1.905000X2.000000*%
%ADD14O,1.905000X2.000000*%
%ADD15C,1.600000*%
%ADD16RoundRect,0.102000X0.700000X0.700000X-0.700000X0.700000X-0.700000X-0.700000X0.700000X-0.700000X0*%
%ADD17C,1.604000*%
%ADD18C,3.000000*%
%ADD19RoundRect,0.102000X-1.000000X-1.000000X1.000000X-1.000000X1.000000X1.000000X-1.000000X1.000000X0*%
%ADD20C,2.204000*%
%ADD21C,2.020000*%
%ADD22R,1.800000X1.800000*%
%ADD23C,1.800000*%
G04 APERTURE END LIST*
D10*
%TO.C,BOM*%
X105470000Y-61330000D03*
D11*
X105470000Y-63870000D03*
%TD*%
D12*
%TO.C,REF\u002A\u002A*%
X158500000Y-52950000D03*
%TD*%
D10*
%TO.C,ESC3*%
X156500000Y-93540000D03*
D11*
X156500000Y-91000000D03*
X156500000Y-88460000D03*
%TD*%
D13*
%TO.C,MOSF*%
X92440000Y-61700000D03*
D14*
X94980000Y-61700000D03*
X97520000Y-61700000D03*
%TD*%
D10*
%TO.C,ESC2*%
X156500000Y-83040000D03*
D11*
X156500000Y-80500000D03*
X156500000Y-77960000D03*
%TD*%
D15*
%TO.C,R2*%
X102000000Y-104000000D03*
X94380000Y-104000000D03*
%TD*%
%TO.C,R1*%
X102880000Y-52500000D03*
X110500000Y-52500000D03*
%TD*%
D16*
%TO.C,TRANS*%
X112894500Y-100894500D03*
D17*
X110294500Y-100894500D03*
X107694500Y-100894500D03*
%TD*%
D18*
%TO.C,ESP32*%
X123905000Y-60630000D03*
X123905000Y-107580000D03*
X148415000Y-60630000D03*
X148415000Y-107580000D03*
D19*
X123485000Y-68590000D03*
D20*
X123485000Y-71130000D03*
X123485000Y-73670000D03*
X123485000Y-76210000D03*
X123485000Y-78750000D03*
X123485000Y-81290000D03*
X123485000Y-83830000D03*
X123485000Y-86370000D03*
X123485000Y-88910000D03*
X123485000Y-91450000D03*
X123485000Y-93990000D03*
X123485000Y-96530000D03*
X123485000Y-99070000D03*
X123485000Y-101610000D03*
X123485000Y-104150000D03*
X148885000Y-104150000D03*
X148885000Y-101610000D03*
X148885000Y-99070000D03*
X148885000Y-96530000D03*
X148885000Y-93990000D03*
X148885000Y-91450000D03*
X148885000Y-88910000D03*
X148885000Y-86370000D03*
X148885000Y-83830000D03*
X148885000Y-81290000D03*
X148885000Y-78750000D03*
X148885000Y-76210000D03*
X148885000Y-73670000D03*
X148885000Y-71130000D03*
D21*
X148885000Y-68590000D03*
%TD*%
D12*
%TO.C,REF\u002A\u002A*%
X92110000Y-52530000D03*
%TD*%
D22*
%TO.C,DIO*%
X115960000Y-61000000D03*
D23*
X118500000Y-61000000D03*
%TD*%
D12*
%TO.C,REF\u002A\u002A*%
X91500000Y-109650000D03*
%TD*%
D15*
%TO.C,R3*%
X113240000Y-92260000D03*
X105620000Y-92260000D03*
%TD*%
D10*
%TO.C,9V*%
X110500000Y-63750000D03*
D11*
X110500000Y-61210000D03*
%TD*%
D10*
%TO.C,MPU*%
X117500000Y-68460000D03*
D11*
X117500000Y-71000000D03*
X117500000Y-73540000D03*
X117500000Y-76080000D03*
X117500000Y-78620000D03*
X117500000Y-81160000D03*
X117500000Y-83700000D03*
X117500000Y-86240000D03*
%TD*%
D10*
%TO.C,ESC4*%
X156500000Y-105540000D03*
D11*
X156500000Y-103000000D03*
X156500000Y-100460000D03*
%TD*%
D10*
%TO.C,ESC1*%
X156500000Y-71540000D03*
D11*
X156500000Y-69000000D03*
X156500000Y-66460000D03*
%TD*%
M02*
